<?xml version="1.0" encoding="UTF-8"?>
<svg id="Layer_1" xmlns="http://www.w3.org/2000/svg" version="1.1" viewBox="0 0 60 60">
  <!-- Generator: Adobe Illustrator 30.0.0, SVG Export Plug-In . SVG Version: 2.1.1 Build 123)  -->
  <defs>
    <style>
      .st0 {
        fill:rgb(255, 255, 255);
        fill-rule: evenodd;
      }
    </style>
  </defs>
  <path class="st0" d="M27.7,3.9v1.3h-4.8l-.4-.2h-.6s-.5,1.6-.5,1.6v2.8l.9,1.1h.6s0-1.1,0-1.1h1.3s.2-.5.2-.5h1.2s.2.6.2.6h1.3s-.3,4.3-.3,4.3h-2.9v-2.9h-4.4v6.8h4.4v-2.8c.8.3,2.1.9,2.7,1.5l-.3,4.2c-.7.9-2,2.8-2.8,3.6-1,1-1,1-1,1l-.2.3v1.6h.6v-1.4c.2-.2.5-.5,1.1-1,.6-.6,1.5-1.8,2.2-2.8l-.2,3.1-1.5,1.8-3,.7-.3,11.3-1,.3v1.4c0,0,1,.3,1,.3v3.7h3.1l1.7,1.2-2.7,2.1v-3h-4.1v7.2h4.1v-2.6h3v2.8h-2.6l-1.4.7v3.5c0,0,14.6,0,14.6,0v-3.5s-1.4-.7-1.4-.7h-2.5v-2.8s3,0,3,0v2.6h4.1v-7.2h-4.1v3s-2.7-2.1-2.7-2.1l1.7-1.2h3.1v-3.7c0,0,1.1-.3,1.1-.3v-1.4c0,0-1-.3-1-.3l-.3-11.3-3-.7-1.5-1.8-.2-3.1c.7,1,1.7,2.2,2.2,2.8.6.6.9.9,1.1,1v1.3h.6c0,.1,0-1.4,0-1.4l-.2-.3s0,0-1-1c-.7-.8-2.1-2.7-2.8-3.6l-.3-4.2c.7-.6,1.9-1.2,2.7-1.5v2.8h4.4v-6.8h-4.4v2.9h-2.9l-.3-4.2h1.3s.2-.7.2-.7h1.2s.2.5.2.5h1.3s0,1.1,0,1.1h.6s.9-1.1.9-1.1v-2.8l-.5-1.6h-.6s-.3.2-.3.2h-4.8v-1.3c-.1,0-4.4,0-4.6,0h0Z"/>
</svg>