<?xml version="1.0" encoding="UTF-8"?>
<svg id="OBJECTS" xmlns="http://www.w3.org/2000/svg" version="1.1" viewBox="0 0 334.41 37.38">
  <!-- Generator: Adobe Illustrator 30.0.0, SVG Export Plug-In . SVG Version: 2.1.1 Build 123)  -->
  <defs>
    <style>
      .st0 {
        fill: #bf0413;
      }

      .st1 {
        fill: #26011c;
      }
    </style>
  </defs>
  <g>
    <path class="st1" d="M331.59,28.02c0-.09.04-.19.21-.26-.14.03-.38-.06-.36.15,0,.1.07.12.15.12Z"/>
    <path class="st1" d="M334.41,27.21v-.16c-.2-.11-.37-.22-.53-.34.12.21.31.38.53.49Z"/>
    <path class="st1" d="M330.67,29.83c-.07-.14-.04-.3.1-.48,0,0,0,0,0,0-.12-.02-.26-.02-.43-.02-.03,0-.15.02-.26.04-.12.03-.17.1-.17.23,0,.13.02.24.16.3.08.03.35,0,.59-.07Z"/>
    <path class="st1" d="M331.54,26.73c-.05-.32.31-.29.4-.52.04-.11.18.02.27.12.23.27.5.29.79.07.09-.07.18-.12.25-.15-.14-.1-.29-.2-.46-.3-.18-.1-.42-.15.2-.44.01,0,.03-.01.04-.02h-.17c-.09.05-.18.12-.26.23-.13.18-.39.08-.59.06-.33-.04-.69-.16-.91.24-.01.02-.05.05-.07.05-.4-.08-.76.13-1.13.27v.31s.08.01.12.03c-.05.05-.09.1-.12.15v.25c.08-.01.16-.04.24-.06.4-.11.8-.23,1.22-.15.12.02.23.01.2-.14Z"/>
    <path class="st1" d="M330.11,28.54c.24.06.48-.08.7-.18.3-.14.18-.5.13-.69-.06-.25-.35-.1-.48.02-.18.17-.37.22-.59.26v.59s.02,0,.03,0c.06,0,.12,0,.2,0Z"/>
    <path class="st1" d="M330.27,25.5h-.4v.15c.13-.04.27-.09.4-.15Z"/>
    <path class="st1" d="M322.34,27.08c-.08.31-.22.09-.31.04-.08-.04-.15-.05-.22-.04-.04.22.27.3.35.46.1.19.31.02.38-.12.01-.03.04-.05.06-.07-.02-.07-.07-.13-.11-.2-.04-.06-.15-.14-.17-.07Z"/>
    <path class="st1" d="M322.54,25.81s0-.05,0-.07c-.24-.02-.48-.04-.71.1-.1.06-.38-.01-.3.15.12.24-.16.55.06.74.18-.14.32-.35.37-.6.17-.16.54-.01.58-.32Z"/>
    <path class="st1" d="M321.35,27.48c.07-.05.09-.11.05-.16-.19.11-.4.17-.61.22v.08c.19.02.38-.02.55-.14Z"/>
    <path class="st1" d="M321.32,26.2c-.06-.22-.28-.14-.53-.13v.74s.09-.06.14-.08c.23-.1.47-.26.39-.53Z"/>
    <path class="st1" d="M324.51,29.45c-.01-.2-.19-.21-.33-.23-.35-.06-.7-.12-1,.18-.19.19-.45.16-.67.08-.41-.13-.53.21-.61.45-.01.04-.02.08-.01.11h.81c.5-.13,1.05-.05,1.54-.28.14-.07.29-.12.28-.3Z"/>
    <path class="st1" d="M320.97,25.84c0-.12-.07-.15-.17-.16v.32c.09-.02.16-.06.17-.16Z"/>
    <path class="st1" d="M325.34,28.36c-.1.15-.27.18-.53.08-.31-.12-.48-.06-.51.29,0,.08-.04.15.04.2.07.04.16.03.2-.03.13-.18.31-.11.48-.14.1-.02.21.01.32.03v-.43Z"/>
    <path class="st1" d="M325.01,26.98c0,.08.09.13.25.16.03,0,.06,0,.09.01v-.24c-.13.03-.24.05-.33.06Z"/>
    <path class="st1" d="M325.24,28.13s.07-.02.1-.03v-.33c-.07.05-.13.12-.16.23-.06,0-.11,0-.17,0-.04-.08-.07-.16-.11-.24,0-.03,0-.05.01-.07-.02,0-.03,0-.05.01-.1.03-.14.12-.1.22.09.22.26.27.47.22Z"/>
    <path class="st1" d="M322.12,28.57c-.01.31.33.29.56.28.24,0,.51-.09.5-.38,0-.2-.23-.24-.46-.2-.19.08-.59-.06-.61.31Z"/>
    <path class="st1" d="M324.51,26.2c-.48-.27-1-.45-1.55-.4-.2.02-.32.22-.39.39-.05.12.11.14.21.16.01.16-.1.15-.21.16-.18,0-.33.06-.43.26.27.02.52.05.71.16-.01-.02-.03-.04-.05-.06.22-.07.45-.13.67-.2.12-.04.21,0,.24.12.03.12.08.22.2.28.14.06.31.12.23.32-.06.15-.22.15-.35.11-.19-.05-.34.02-.51.09.06.06.15.11.21.17-.08.07-.16.09-.24.09.52.23.98.14,1.23-.21.22-.31.12-.56-.02-.81-.05-.04-.09-.07-.15-.12-.05-.05-.13-.06-.2-.09.13-.04.25-.07.38-.12.18-.07.2-.19.03-.28Z"/>
    <path class="st1" d="M329.88,33.98c-.73.2-1.47.06-2.31.09.25-.21.45-.09.61-.17.54-.29,1.1-.42,1.7-.39v-.71c-.17-.07-.36-.07-.53.02-.61.32-1.24.4-1.91.32-.17-.02-.32.02-.47.11-.11.07-.24.13-.38.1-.43-.12-.84.04-1.26.12v1.09h4.54v-.59Z"/>
    <path class="st1" d="M325.34,32.57v.23c.09-.04.18-.09.27-.13-.1-.04-.19-.07-.27-.1Z"/>
    <path class="st1" d="M326.6,30.51c.54.1,1-.13,1.5-.23.17-.04.26-.11.29-.24h-2.35c.06.26.33.43.56.47Z"/>
    <path class="st1" d="M325.9,32.78c.74-.39,1.54-.05,2.3-.23.28-.07.54-.13.76-.33.2-.18.43-.17.67-.13.08.01.16.03.24.03v-.5c-.06-.02-.13-.03-.2-.03-.07,0-.15,0-.28,0-.26-.04-.47.22-.72.31-.51.18-1.03.47-1.64.28-.56-.17-1.06.03-1.26.38-.04.06-.12.12-.05.19.03.03.12.06.16.04Z"/>
    <path class="st1" d="M326.28,25.19c0-.15-.19-.16-.32-.17-.06,0-.12,0-.18,0h0c-.09.01-.18,0-.27.01-.07,0-.13.03-.18.06v.37c.07.02.16,0,.25-.02.13-.03.26-.06.39-.08.13-.02.32,0,.3-.17Z"/>
    <path class="st1" d="M327.84,24.19c-.05-.17-.11-.33-.22-.46-.06.12-.07.25.02.36.06.07.13.1.2.1Z"/>
    <path class="st1" d="M329.67,24.95c-.03-.18-.06-.36-.12-.53-.16-.08-.32-.19-.49-.23-.01.03-.02.06-.03.09-.03.12-.12.15-.24.11-.09-.03-.17-.05-.26-.08-.19.46-.42.61-.92.58-.25-.02-.5-.07-.75-.13.02.1.03.2-.01.29-.08.16.19.09.3.14.42.24.87.01,1.29.09.28.05.57.09.82.22h.62v-.54s-.12.01-.21,0Z"/>
    <path class="st1" d="M325.93,22.19c-.08,0-.16,0-.24.01-.12,0-.24,0-.35-.03v.16c.2,0,.41,0,.59-.14Z"/>
    <path class="st1" d="M325.74,24.97c.11.02.24,0,.25,0,.29-.04.58.12.65-.13.01-.05.02-.09.01-.13-.05-.01-.1-.03-.15-.04-.18-.05-.28-.18-.24-.34,0,0,0,0-.01,0-.12-.05-.26-.13-.22-.29.02-.07.05-.1.09-.13-.19-.06-.38-.05-.57-.05,0,.06,0,.11.01.17.05.19,0,.38-.09.51-.31.4.02.39.26.43Z"/>
    <path class="st1" d="M327.7,21.66c.14-.28.16-.46-.3-.49-.03,0-.06,0-.09,0-.03.02-.06.04-.09.05.07.21.17.49.49.45Z"/>
    <path class="st1" d="M328.7,21.4s.05-.02.08-.02c.02,0,.03-.02.05-.04.05-.04.07-.09.07-.14-.19-.02-.39-.03-.58-.06.04.03.08.07.12.11.07.08.17.14.26.14Z"/>
    <path class="st1" d="M315.31,28.82c.08,0,.15-.05.16-.13.02-.11-.08-.15-.16-.18-.33-.14-.65.02-1.09,0,.39.33.73.34,1.08.32Z"/>
    <path class="st1" d="M316.26,25.5h-3.86s0,.01-.01.02c0,.19-.05.31-.28.26.04-.2-.06-.27-.23-.28h-.16v2.71c.23-.06.46-.16.7-.22.18-.04.02-.17.02-.25.17-.16.26-.53.59-.21.07.45.32.55.7.38.23-.1.46-.08.69-.1.07,0,.15,0,.22,0,.23,0,.45-.11.49-.31.05-.23-.21-.28-.38-.34-.05-.02-.11-.03-.17-.04.35-.3.71-.39,1.2-.32.15.02.31,0,.47-.07v-1.23Z"/>
    <path class="st1" d="M313.88,28.77c-.2.06-.52-.07-.5.16.02.24.27.45.59.44.27-.01.53-.14.49-.4-.05-.33-.39-.11-.57-.2Z"/>
    <path class="st1" d="M312.03,29.67c.05-.08,0-.14-.07-.19-.03-.03-.12-.05-.24-.07v.58c.15-.02.22-.2.3-.32Z"/>
    <path class="st1" d="M315.36,29.88c-.31-.22-.62-.05-.94-.02-.23.02-.44.1-.66.18h1.46c.06-.04.12-.06.14-.15Z"/>
    <path class="st1" d="M316.57,32.49c.07.09.27.15.32-.08.03-.13.13-.13.2-.13.47-.04.94-.35,1.43-.07.07.04.11,0,.16-.03.39-.31.86-.28,1.31-.37.27-.05.55-.11.82-.19v-.61c-.12-.02-.24,0-.34.1-.18.2-.29.16-.49.08-.32-.14-.64-.18-.96.08-.27.21-.6.24-.92.03-.11-.07-.21-.13-.17-.28.03-.14.12-.2.27-.18.07.01.15.03.22,0,.16-.05.41-.07.37-.3-.03-.22-.25-.19-.43-.19-.6-.01-1.2.21-1.81.03-.1-.03-.2-.02-.28.05v1.87c.1,0,.19.05.31.21Z"/>
    <path class="st1" d="M320.29,33.68c-.07.09-.19.04-.29.02-.1-.02-.21-.08-.3-.06-.25.04-.6-.08-.73.2-.1.23-.23.23-.41.23-.58,0-1.16,0-1.74.02-.38.02-.35-.18-.24-.43.06-.14.18-.24.33-.29,0,.38.14.56.54.5.2-.03.41.04.61.05.11,0,.27.05.28-.12.01-.13-.12-.19-.24-.23-.31-.09-.65-.06-.94-.24-.32-.27-.63-.31-.91-.14v1.38h4.54v-1.33c-.19.08-.4.07-.61.12.04.12.2.2.1.33Z"/>
    <path class="st1" d="M318.05,33.16c.32-.13.78-.01,1.16.12.18.06.37.12.43-.14.08-.38.38-.37.63-.35.19.02.36-.02.53-.08v-.42c-.09.03-.25-.01-.36-.01-.35,0-.75-.19-1.01.22-.02.03-.09.05-.12.04-.69-.24-1.32.24-2.03.17.17.35.25.64.78.43Z"/>
    <path class="st1" d="M319.48,30.47c.14.03.29.05.44.06.12,0,.31.06.31-.13,0-.17-.18-.17-.3-.19-.07-.01-.15,0-.22,0-.07,0-.15,0-.22,0-.07,0-.16,0-.17.1-.02.12.08.15.17.17Z"/>
    <path class="st1" d="M317.42,23.15c.13.07.27.03.41,0,0-.02-.03-.04-.09-.06-.37-.08-.71-.27-1.1-.27-.13,0-.28,0-.38.08v.88s.03.02.04.04c.12.11.26.12.41.05.1-.05.23-.27.31.04.02.08.13,0,.17-.07.08-.12.19-.26.04-.4-.08-.08-.24-.14-.17-.28.09-.17.25-.06.35,0Z"/>
    <path class="st1" d="M320.06,24.07s.03,0,.04,0c-.07-.04-.13-.09-.2-.14.06-.01.12-.02.17-.04.1-.04.24-.07.32-.14-.32-.1-.71-.06-.8-.49-.18,0-.37,0-.54-.09-.38-.17-.63-.07-.7.37-.24.22-.35.1-.46-.04,0,0,0,0,0,0-.12.6-.56.68-1.07.72.1.2.25.26.43.26.1,0,.22,0,.21.16-.1.02-.26.04-.21.17.07.18.19.38.39.4.56.05,1.07-.13,1.55-.41.16-.1.15-.22-.03-.29-.12-.05-.25-.08-.38-.12.07-.03.15-.04.2-.09.36-.32.55-.37,1.08-.22Z"/>
    <path class="st1" d="M319.2,22.33c.18-.08.52.13.57-.19.04-.25-.21-.38-.49-.39-.32-.01-.57.2-.59.43-.02.23.3.1.5.16Z"/>
    <path class="st1" d="M317.22,25.2c-.04-.31-.41-.16-.58-.33-.05-.26-.19-.48-.38-.62v1.24h.74c.13-.05.24-.11.22-.29Z"/>
    <path class="st1" d="M320.64,22.59c.08-.03.18-.07.16-.18-.01-.08-.09-.13-.16-.13-.35-.02-.69,0-1.08.32.44-.03.76.13,1.09,0Z"/>
    <path class="st1" d="M320.68,21.24c-.02-.16-.22-.12-.24-.29h-.83c-.14.07-.28.13-.43.17.18.06.37.13.56.14.32.02.62.19.94-.02Z"/>
    <path class="st1" d="M317.35,21.45c-.1-.14-.19-.36-.39-.3-.24.07-.47.08-.69.05v.57c.43-.01.93-.06,1.02-.13.06-.05.12-.11.07-.19Z"/>
    <path class="st1" d="M307.16,30.01s0,.01,0,.02h.01v-.04s-.02,0-.02.02Z"/>
    <path class="st1" d="M306.2,29.45c.06-.12.16-.12.27-.1.24.05.48.12.72.13v-2.44c-.17-.08-.39-.1-.81-.23-.1-.03-.22-.02-.25-.14-.06-.18.09-.23.2-.3.15,0,.3.02.44,0,.15-.03.22-.15.21-.3-.01-.18-.14-.15-.26-.12-.18.06-.31-.08-.46-.09-.38-.02-.81-.3-1.09.2q-.54-.03-.73.2c.13.12.34-.15.38.01.07.29.08.61.05.91-.02.17-.09.37-.32.51-.07-.3-.15-.58-.41-.77-.09-.06-.07-.2-.01-.29.17-.29.19-.53-.34-.67.33-.07.51-.12.66-.27.06-.06.12-.12.17-.18h-1.94v4.54h3.91c.04-.25-.24-.39-.36-.59Z"/>
    <path class="st1" d="M308.05,32.12c.51-.14,1.04-.23,1.54-.41.4-.14.8-.1,1.2-.16.33-.04.62-.2.93-.31v-.98c-.11.03-.2.1-.25.26-.1.3-.29.28-.49.26-.47-.06-.93-.15-1.37.16-.12.08-.32.05-.48.07-.2.02-.39-.06-.41-.26-.03-.21.17-.33.35-.34.46-.03.9-.23,1.35-.37h-3.24v.03c.11.22.43.02.53.28-.19.09-.36.09-.53.06v2.39c.05-.06.09-.13.13-.21.13-.26.44-.4.74-.48Z"/>
    <path class="st1" d="M309.89,32.26c-.16-.04-.3-.03-.35.17-.06.22-.21.22-.39.19-.17-.03-.34-.07-.63.03.12.05.16.07.2.09.11.05.25.09.2.25-.05.14-.18.06-.27.05-.19-.01-.39-.07-.58-.05-.26.02-.59-.1-.76.11-.04.05-.08.1-.13.14v1.34h4.54v-2.73c-.55.46-1.13.6-1.83.42Z"/>
    <path class="st1" d="M307.42,25.5h1.2c-.03-.06-.08-.1-.15-.12-.44-.11-.73-.31-.58-.92-.15.39-.42.26-.71.27v.15c.29.13.33.35.24.62Z"/>
    <path class="st1" d="M311.39,21.63c.04.25.09.45.33.56v-.42c-.08,0-.16,0-.21-.1.05-.08.13-.16.21-.23v-.48h-1.17c.1.09.21.16.36.17.35.02.45.25.49.51Z"/>
    <path class="st1" d="M311.71,24.29c-.41-.03-.82-.08-1.22-.19-.18-.05-.34.04-.38.23-.04.16-.19.34.08.49.17.1.09.49-.11.68h1.64v-1.21s-.01,0-.02,0Z"/>
    <path class="st1" d="M308.56,23.55c.32.38,1.27.38,1.67-.04-.51-.14-.96-.26-1.41-.38-.2-.05-.42-.04-.52.15-.1.2.18.16.26.27Z"/>
    <path class="st1" d="M308.14,22.7c.05-.09.1-.18.13-.28.07-.21.11-.48.39-.47.25,0,.48.17.55.4.13.49.39.3.64.16.35-.18.57-.09.6.31.02.2.11.25.26.35.37.26.59.05.81-.24.09.22-.06.33-.1.46-.04.14-.06.33.11.31.06,0,.13,0,.19,0v-1.27c-.32.11-.95-.16-1.08-.47-.08-.18-.16-.39-.4-.32-.27.07-.42-.08-.58-.23.19-.06.38-.01.57.03.08.02.2.01.21-.1.02-.1-.08-.17-.16-.17-.17,0-.31,0-.35-.21h-2.73v1.39c.12.13.23.29.35.43.28.33.39.31.61-.08Z"/>
    <rect class="st1" x="293.57" y="25.5" width="4.54" height="4.54"/>
    <rect class="st1" x="298.11" y="30.03" width="4.54" height="4.54"/>
    <path class="st1" d="M302.35,24.19c-.06.11-.04.25.08.32.07.04.14.08.22.11v-.45s-.02,0-.04,0c-.1-.03-.19-.11-.26.02Z"/>
    <path class="st1" d="M301.09,20.96h-1.17s.02.01.03.01c.34.13.71.2,1.07.27.09.02.06-.09.04-.17-.03-.07,0-.1.03-.12Z"/>
    <path class="st1" d="M301.93,20.96h-.54c.19.05.37.08.54,0Z"/>
    <path class="st1" d="M302.65,25.5v-.56c-.66-.5-1.16-1.16-1.79-1.7q.52-.65,1-.55c-.02.12-.28.22-.02.35.09.05.25.04.21.17-.04.15-.19.11-.3.07-.11-.04-.21-.06-.26.07-.05.15.03.27.15.33.28.13.48-.03.59-.25.09-.2.26-.3.42-.4v-.85s-.06,0-.08,0c.03-.07.06-.13.08-.19v-.86c-.1,0-.2.04-.3.06-.23.05-.15.12-.04.24.04.04-.03.1-.09.13-.26.12-.72-.02-.84-.27-.13.21-.12.41.03.58.11.13.1.23.05.36-.31-.09-.31-.77-.84-.45-.17-.46-.71-.25-1-.55-.14-.14-.57-.38-.72.13-.18-.05-.2-.19-.19-.35,0-.03,0-.05,0-.07h-.59v4.54h4.54Z"/>
    <rect class="st1" x="284.49" y="25.5" width="4.54" height="4.54"/>
    <rect class="st1" x="289.03" y="30.03" width="4.54" height="4.54"/>
    <rect class="st1" x="289.03" y="20.96" width="4.54" height="4.54"/>
    <rect class="st1" x="279.95" y="30.03" width="4.54" height="4.54"/>
    <path class="st1" d="M299.33,7.34h.16c-.35-.19-.68-.42-1.02-.62-.08-.05-.21-.09-.36-.12v.46c.15.04.32.05.49.06.27.02.53.03.73.23Z"/>
    <path class="st1" d="M299.16,6.2c.15-.11.34-.08.52-.08.38,0,.77.02,1.15,0,.14,0,.37.03.4-.12.04-.21-.2-.16-.32-.21-.08-.04-.16-.09-.24-.12-.58-.25-1.28-.09-1.6.37-.29.42-.51.44-.87.06-.03-.03-.05-.05-.08-.07v.3c.28.05.55.11.83.16,0-.13.12-.22.22-.29Z"/>
    <path class="st1" d="M293.57,6.36c-.07-.13-.17-.24-.35-.2-.11.03-.2.08-.22.19-.04.21.12.31.26.36.11.04.21.1.3.17v-.52Z"/>
    <path class="st1" d="M291.84,5.99c.1.16.21.18.36.06-.11-.12-.21-.13-.36-.06Z"/>
    <path class="st1" d="M292.52,6.09s.1.02.21.04c-.08-.07-.1-.1-.13-.12-.03-.01-.09-.03-.11-.01-.04.03,0,.07.03.09Z"/>
    <path class="st1" d="M292.56,5.54c.05.13.21.18.34.15.15-.03.31-.05.46-.06-.32-.12-.63-.27-.91-.49-.02-.25.23-.37.29-.59.11-.05.24-.11.33-.04.37.33.35-.01.41-.23.02-.08.05-.17.08-.25,0,0,0,0,0,0v-.26c-.1.05-.21.09-.3.16-.24.09-.51.26-.56-.19.31-.15.66-.24.84-.58-.13-.09-.44-.06-.35-.26.02-.04.03-.07.03-.1h-.91c-.09.11-.01.34.18.76.02.04.03.08.04.13-.41-.08-.83-.35-1.19.1-.19.17-.41.11-.63.11-.27,0-.36.11-.19.35.05.07.1.14.14.21-.33-.05-.67-.08-.99-.19.24-.28.57-.52.36-.98-.16-.35-.54-.52-1.02-.46v.38c.1.05.2.09.32.08.14,0,.29.02.32.17.04.2-.14.23-.28.26-.13.03-.19.11-.25.23-.03.06-.07.09-.11.1v1.07c.11.07.2.15.29.26-.11.04-.2.04-.29,0v.54c.1,0,.19.03.18.12-.02.13,0,.21.05.26.07,0,.13.03.18.07.44.34,1.17.17,1.43.82.02.05.09.1.18.14h1.06c.03-.18-.18-.54-.38-.59-.21-.05-.44-.06-.66-.1-.14-.02-.25-.09-.27-.25-.02-.15.08-.24.21-.23.35.01.22-.47.53-.49-.01-.02-.02-.05-.04-.07-.13-.13-.46-.12-.4-.38.06-.26.34-.12.51-.12.37,0,.79-.05.96.43Z"/>
    <path class="st1" d="M290.45,3.3c.19.09.39.15.57-.01.05-.04.05-.13.07-.2.18,0,.35.02.53.01.12,0,.31.08.34-.09.02-.12-.03-.17-.11-.2h-.79c.02.07.03.16.03.26-.06-.04-.12-.08-.19-.11-.2-.09-.38-.08-.5.12-.05.08-.04.18.06.23Z"/>
    <path class="st1" d="M289.5,7.06s-.01-.01-.02-.02c-.15-.03-.3-.04-.45-.07v.37h.65c-.02-.07-.07-.16-.18-.29Z"/>
    <path class="st1" d="M284.49,5.8c-.07-.03-.14-.06-.2-.11.06.08.12.14.2.18v-.07Z"/>
    <path class="st1" d="M283.95,6.32c-.35-.28-.75-.35-1.14-.43,0,.03,0,.06,0,.09,0,.11.14.21.22.32-.25.16-.46-.12-.71-.08.44.31,1.07.38,1.62.11Z"/>
    <path class="st1" d="M284.49,6.43s-.03.04-.04.05c-.06.07-.04.13,0,.17,0-.03-.01-.05-.02-.08.02-.05.04-.1.07-.14h0Z"/>
    <path class="st1" d="M283.75,7.31c.13.03.28,0,.42-.04.15-.04.31-.12.24-.3-.07-.18-.17-.39-.44-.33-.17.04-.34.1-.52.13-.27.05-.22.19-.1.34.09.13.24.17.4.2Z"/>
    <path class="st1" d="M280.66,4.21c.38.01.21-.32.27-.5.06-.18-.11-.17-.19-.14-.28.12-.54.06-.8-.02v.23c.13.02.26.02.4,0,.13-.01.27.04.3.19.02.11-.08.14-.17.15-.16-.12-.33-.2-.53-.19h0v.15s.07,0,.1.01c.21.03.41.09.61.1Z"/>
    <path class="st1" d="M281.73,5.4c-.14-.1-.28-.12-.41-.03-.13.08-.26.13-.4.16.12.07.29.1.43.12.16.02.41.17.46-.15,0,0,0,0,0,0-.03-.03-.06-.07-.08-.09Z"/>
    <path class="st1" d="M280.43,6.65c.54,0,1.07-.01,1.61-.02-.5-.47-1.08-.26-1.63-.34-.1-.01-.21.08-.21.19,0,.13.13.17.23.17Z"/>
    <path class="st1" d="M282.46,4.26c-.24.03-.49.1-.74.04-.11-.03-.31,0-.31.17,0,.15.19.14.29.12.02,0,.04,0,.06,0,.03-.05.06-.11.09-.16.18-.12.49.07.61-.15Z"/>
    <path class="st1" d="M284.34,4.98c-.42-.36-.89-.63-1.45-.69-.2-.02-.35.15-.45.31-.07.11.08.16.17.2-.02.16-.13.13-.23.11-.07-.01-.14-.01-.21,0,.02.02.04.03.06.04.37.16.7.46,1.15.42.2-.02.41.04.62.07.02,0,.05,0,.07.01-.01-.01-.02-.03-.03-.04-.04-.06-.12-.09-.18-.13.13-.01.26-.02.39-.04.19-.03.23-.15.08-.27Z"/>
    <path class="st1" d="M281.64,3.61c.28.15.54.04.71-.27.05-.09.11-.08.18-.07.12.02.24.03.35.08.1.04.27.04.39.06-.08-.14-.28-.13-.43-.14-.21,0-.3-.12-.45-.26-.07-.07-.15-.14-.24-.21h-2.2v.13c.15.05.29.1.44.14.45.14.85.32,1.25.53Z"/>
    <path class="st1" d="M282.16,5.91c.09-.06.11-.13.1-.2-.03-.01-.05-.02-.08-.04-.06-.03-.14.02-.17.11-.02.07.01.13.05.18.03-.02.06-.03.09-.05Z"/>
    <path class="st1" d="M280.45,7.25c-.06-.06-.15-.09-.23-.14-.09-.05-.18-.09-.27-.13v.36h.58s-.05-.06-.08-.09Z"/>
    <rect class="st1" x="279.95" y="20.96" width="4.54" height="4.54"/>
    <path class="st1" d="M284.49,12.15c-.23-.14-.44-.37-.77-.21-.09.04-.19,0-.27-.06h-1.42c.07.02.15.03.22.04.08.01.16.02.18.1.04.1-.04.17-.1.23-.11.1-.24.1-.38.07-.2-.04-.33.03-.31.25.05.47-.18.34-.41.2-.35-.2-.61-.46-.61-.89h-.39c-.09.02-.18.03-.28.03v1.6c.14-.2.44-.29.5-.55.18.09.47.01.5.33-.26.14-.42.43-.73.5,0,.04,0,.1-.03.13-.08.08-.16.17-.23.26v2.24h4.54v-4.27Z"/>
    <path class="st1" d="M318.93,14.81s.07-.04.1-.05c-.26-.03-.53-.05-.81-.06.16.21.45.27.72.11Z"/>
    <path class="st1" d="M320.53,13.87c.07.05.16.09.27.12v-.13c-.09-.05-.2-.12-.27,0Z"/>
    <path class="st1" d="M318.58,13.58c.1-.02.18.04.17.15,0,.07-.01.14-.02.21.12-.05.21-.1.29-.15-.19-.08-.27-.17-.13-.44.15-.27-.04-.47-.36-.43-.16.02-.32.04-.41-.09-.32-.49-.89-.39-1.32-.59-.17-.08-.35-.1-.54-.13v1.35c.14.04.28.09.42.13.17.05.43.05.55.22.24-.31.5-.3.79-.22,0-.03,0-.06,0-.09.19.02.36.14.56.09Z"/>
    <path class="st1" d="M319.82,15.94c0,.05.05.13.12.23.07.09.12.18.13.25h.25s.03-.04.05-.06c.05-.07.14-.11.2-.17.03-.03.07-.05.11-.07,0,0-.01-.01-.02-.02-.27-.21-.55-.2-.84-.16Z"/>
    <path class="st1" d="M321.76,16.69c.04.06.1.11.17.15.02-.14-.06-.25-.2-.33-.06-.04-.12-.07-.17-.09h-.11c-.03.14.24.16.31.27Z"/>
    <path class="st1" d="M325.03,17.12s.05-.07.05-.11c-.25-.01-.45-.13-.59-.4-.04-.08-.09-.14-.14-.19h-.51c-.05.31.21.67.62.75.15-.09.42.06.57-.05Z"/>
    <path class="st1" d="M324.89,18.74s-.02.05-.02.07c.14.12.3.13.47.12v-.33c-.17,0-.36-.03-.45.14Z"/>
    <path class="st1" d="M324.55,18.66c-.12-.18-.24-.35-.54-.18.09.04.17.08.24.15.04.03.08.06.13.07.06,0,.11-.02.17-.03Z"/>
    <path class="st1" d="M321.01,19.19c.08-.2-.07-.22-.21-.25v.49c.1-.05.17-.14.21-.24Z"/>
    <path class="st1" d="M322.37,19.51c.01-.16-.2-.3-.42-.31-.07,0-.15.01-.22,0-.13-.03-.28-.08-.36.06-.11.19.12.23.18.35-.08.05-.16.04-.25.04-.11,0-.28-.17-.33.04-.03.13.09.25.24.27.22.04.24.18.22.36-.21-.06-.43-.06-.62-.17h0c.2.22.53.22.68.47.09.16.23.2.38.16.07-.02.13-.03.2-.04-.16-.12-.31-.27-.47-.4.07-.16.19-.25.37-.26.08,0,.19,0,.19-.13,0-.08-.09-.11-.15-.14-.09-.05-.17-.11-.26-.16.07-.01.14-.03.21-.03.15-.01.4.16.43-.1Z"/>
    <path class="st1" d="M324.69,18.46c.04-.11.04-.22-.02-.32-.04.11-.03.22.02.32Z"/>
    <path class="st1" d="M323.65,20.58c-.41-.1-.76-.18-1.1-.28-.11-.03-.21-.06-.26.05-.07.15.05.22.15.27.06.03.12.06.18.08.19.01.37.04.56.06.15-.03.3-.09.47-.19Z"/>
    <path class="st1" d="M323.37,18.12c.15.21.38.26.6.34-.11-.26-.36-.29-.6-.34Z"/>
    <path class="st1" d="M323.42,17.64c.1-.03.2-.07.23-.16-.13.02-.2.09-.27.17.01,0,.03,0,.04,0Z"/>
    <path class="st1" d="M311.72,15.84s-.06-.02-.08-.03c-.12-.06-.26-.07-.38-.12-.39-.14-.88-.12-1.15-.42-.32-.34-.73-.34-1.09-.49-.12-.05-.47-.07-.52.19-.05.3.19.23.39.23.25,0,.16.15.07.27-.26.35-.02.48.27.55.21.06.44.05.64.18-.04.16-.21.14-.32.2h1.72s.09-.05.14-.08c.04,0,.09,0,.13-.01.06,0,.12,0,.18,0v-.48Z"/>
    <path class="st1" d="M310.55,14.62c.14.05.29.07.42-.03.11-.08.18-.23,0-.25-.28-.04-.39-.25-.53-.43-.19-.25-.46-.31-.72-.39-.13-.04-.27-.01-.35.12-.09.14.07.2.11.29.19.51.63.6,1.08.69Z"/>
    <path class="st1" d="M307.82,13.22c.21.08.51.1.61-.09.1-.2-.1-.45-.28-.55-.31-.17-.64-.31-.97-.44v.38s0,0,0,0c.07.02.18.06.14.13-.29.59.24.47.49.56Z"/>
    <path class="st1" d="M308.61,14.65c-.5-.32-.78-.73-1.2-.97-.08-.05-.15-.08-.22-.1v.89c.43.18.86.29,1.42.18Z"/>
    <path class="st1" d="M312.77,17.66c-.23-.01-.41-.05-.5-.29-.02-.07-.07-.15-.15-.13-.11.02-.12.13-.12.21,0,.1.01.2.04.3.22.02.4.14.59.36.09.1.22.12.36.12-.03-.02-.07-.03-.1-.06-.08-.05-.02-.13.04-.18.23-.24.04-.32-.16-.33Z"/>
    <path class="st1" d="M311.78,20.89c.41-.04.8-.32,1.26-.1-.07.18-.25.13-.39.17h2.67c-.3-.1-.61-.2-.93-.22-.18-.01-.38-.13-.35-.33.02-.19.21-.27.41-.25.16.02.36-.01.48.07.43.29.87.22,1.33.16v-.74s-.1-.02-.15-.03c-.04,0-.07,0-.11-.01.03.08.08.17.13.29-.09.15-.21.12-.29.02-.16-.17-.35-.15-.62,0,.08-.15.12-.27.12-.37-.14-.02-.28-.04-.42-.09-.5-.17-1.03-.27-1.54-.4-.09-.02-.18-.05-.27-.09-.02.19.03.47-.28.48-.26,0-.54,0-.76-.12-.19-.1-.27-.03-.34.08v.73s.03.09,0,.14v.67h.1s-.03-.04-.04-.07Z"/>
    <path class="st1" d="M314.05,18.45s-.08.03-.2.08c.2.07.35.07.47.06,0-.05-.03-.09-.08-.15-.02-.02-.04-.04-.06-.05-.04.02-.08.04-.12.06Z"/>
    <path class="st1" d="M312.24,18.3c.05.14.17.13.28.12-.1-.12-.21-.2-.33-.24.02.04.03.08.05.13Z"/>
    <path class="st1" d="M315.89,18.2c-.27-.09-.66-.06-.46-.56.04-.1-.11-.17-.21-.18-.34-.06-.42-.29-.38-.59.09-.03.22.06.28-.06.06-.11-.05-.18-.11-.26-.04-.05-.08-.09-.13-.13h-2.63c-.06.12-.1.24.07.34.56.31,1.16.55,1.69.9.29.2.64.21.9.37.34.21.68.46.97.73.05.05.1.08.15.1.05,0,.1.02.15.03.03,0,.06,0,.08-.02v-.55s-.03,0-.04-.01c-.11-.04-.22-.07-.34-.11Z"/>
    <path class="st1" d="M298.19,16.4c-.02-.06-.04-.12-.08-.16v.18h.09s0-.01,0-.02Z"/>
    <path class="st1" d="M298.57,15.98c-.03.14.03.29.17.32.19.04.18-.14.23-.26,0-.12.09-.29-.11-.32-.17-.03-.27.12-.29.27Z"/>
    <path class="st1" d="M298.69,13.62c-.1.03-.21.08-.2.2.02.18.18.21.33.24.15.03.3.12.47.05.02-.15-.05-.29-.13-.41-.12-.18-.3-.14-.48-.09Z"/>
    <path class="st1" d="M300.1,16.02c-.09.08-.11.24-.12.4h1.21c-.17-.1-.36-.15-.56-.21-.18-.06-.37-.33-.53-.18Z"/>
    <path class="st1" d="M299.79,14.66c-.41-.18-.58-.05-.57.26-.03.29-.24.5,0,.62.14.07.36.08.49-.06.08-.08.09-.23.18-.29.36-.27.2-.39-.11-.53Z"/>
    <path class="st1" d="M302.5,16.37c-.21-.04-.14-.18-.07-.3.07-.13-.02-.18-.11-.24-.21-.11-.4-.09-.58.05-.17.14-.21.32-.18.54h1.09s-.1-.04-.14-.05Z"/>
    <path class="st1" d="M299.95,11.88h-1.12c.39.23.74.18,1.12,0Z"/>
    <path class="st1" d="M300.82,15.53c-.15-.06-.34,0-.36.15-.02.22.21.19.36.23.16.01.42.12.44-.11.02-.21-.28-.2-.44-.27Z"/>
    <path class="st1" d="M298.24,13.41s-.09,0-.13.02v.39c.12,0,.2-.06.22-.19,0-.09.02-.21-.09-.22Z"/>
    <path class="st1" d="M298.95,13.16c-.04.1.03.16.1.22.45.39,1.09.5,1.47,1.01.08.11.25.07.38.01.28-.11.43-.02.56.25.11.25.21.57.62.47.29-.07.53.02.56.43,0,0,0,0,0,0v-1.09s0-.04,0-.05v-1.37s-.06-.02-.09-.02c-.17,0-.28-.1-.37-.22-.14-.2-.31-.31-.56-.27-.12.02-.23-.04-.31-.14.03-.19,0-.36-.06-.52h-1.29c-.18.22-.14.36.16.43.13.03.25.07.37.11-.09.15-.3.22-.24.48.06.26-.14.34-.36.31-.22-.03-.43-.11-.65-.16-.13-.03-.25,0-.3.12Z"/>
    <path class="st1" d="M298.13,13.04c.23.1.54-.22.77-.43.04-.03.12.03.15-.06-.09-.12-.22-.12-.35-.15-.17-.03-.41,0-.38-.26.01-.12.07-.22.15-.28h-.35v1.15s.01,0,.02,0Z"/>
    <path class="st1" d="M298.11,15.58v.18s.08-.02.12-.07c-.04-.05-.08-.09-.12-.11Z"/>
    <path class="st1" d="M299.37,16.18c-.1-.01-.15.05-.15.13,0,.04,0,.08,0,.12h.29c-.01-.1-.06-.18-.15-.24Z"/>
    <path class="st1" d="M304.55,18.54c.15.03.3.05.39-.12.07-.13.15-.27.03-.41-.11-.13-.25-.14-.4-.08-.36.15-.44-.08-.48-.35-.01-.09.06-.2-.05-.28-.33.44-.04,1.13.52,1.24Z"/>
    <path class="st1" d="M303.11,17.67c.23.03.47-.1.51-.33.05-.23-.25-.19-.38-.28-.14-.09-.31-.04-.47-.03-.02.13-.06.25-.13.37v.29c.18-.04.32-.05.47-.03Z"/>
    <path class="st1" d="M303.66,20.56c.15,0,.22-.08.24-.21.02-.18-.12-.12-.21-.13-.35-.05-.7-.09-1.04-.06v.35s.09,0,.13,0c.29.03.59.04.88.05Z"/>
    <path class="st1" d="M306.39,17.46c.07-.11,0-.17-.08-.21-.25-.14-.52-.32-.79-.27-.47.09-.37-.2-.31-.41.02-.06.02-.1.02-.14h-1.23s-.05.1-.07.15c-.08.26.17.21.3.27.09.04.18.12.23.2.13.18.34.26.48.39.37.32.84.34,1.23.6.31.21.68.33,1,.54v-.68c-.18-.05-.35-.08-.54-.08-.18,0-.48,0-.26-.35Z"/>
    <path class="st1" d="M305.73,18.81c-.09,0-.18-.02-.24.07-.04.06-.02.14.03.15.23.06.38.28.65.26.56-.05.56-.04.46.48-.01.07-.01.15-.02.22-.54-.58-1.34-.69-1.97-1.11-.11-.07-.25-.07-.27.1-.03.21-.21.36-.18.58-.18.47.05.96.48,1.01.05.12-.02.36.2.33.2-.03.07-.22.08-.33,0-.04,0-.09,0-.13,0-.25.12-.44.39-.45.24,0,.54-.05.55.33,0,.19.15.28.3.35.16.08.29.18.41.29h.59v-1.86c-.47-.17-.94-.31-1.45-.29Z"/>
    <path class="st1" d="M303.16,20.73c-.18.02-.26.1-.21.23h1.19c-.29-.19-.62-.27-.99-.23Z"/>
    <path class="st1" d="M302.78,17.03c.14-.21.44-.24.57-.47.03-.05.06-.09.08-.14h-.59s-.09,0-.13,0h-.06v.58s.09.02.13.03Z"/>
    <path class="st1" d="M303.52,19.77c.14.02.4-.02.33-.17-.14-.3-.17-.73-.63-.79-.14-.02-.24-.02-.22.16-.05.35.21.76.52.8Z"/>
    <path class="st1" d="M305.73,8.91c.11.1.2.22.23.39.01.07.16.13.26.16.32.11.64.2.96.27v-.66c-.08-.04-.16-.08-.23-.14-.46-.33-.95-.65-1.61-.37.09.02.19.04.28.05.08.01.16.02.18.1.03.08-.01.14-.07.19Z"/>
    <path class="st1" d="M306.37,10.96c.29-.06.54.13.81.2,0,0,0,0,0,0v-.46s-.07-.05-.09-.08c-.45-.58-1.07-.32-1.74-.48.16.23.28.32.31.44.1.4.34.46.7.39Z"/>
    <path class="st1" d="M289.06,14.83s-.02-.02-.03-.04v.54c.14-.13.22-.25.03-.5Z"/>
    <path class="st1" d="M290.25,14.37c.44.03.27.45.42.6.38,0,.06-.8.66-.46-.18-.52-.68-.66-1.05-.93-.11-.08-.5-.3-.6.17-.04.19-.29.2-.46.22-.07.01-.13.02-.19.04v.34c.08-.08.22-.14.39-.15.29-.01.55.13.82.15Z"/>
    <path class="st1" d="M293.57,15.58s-.09-.03-.14-.05c-.39-.18-.9-.07-1.2-.46-.14-.19-.9-.42-.93-.3-.06.3-.47.5-.26.87.05.3.49.24.52.56-.31,0-.62-.32-.93-.01-.3-.15-.63-.22-.97-.25-.27-.02-.5.01-.63.22v.25h4.54v-.84Z"/>
    <path class="st1" d="M292.1,13.14c.01.82.02.81.79,1.09.23.08.52.05.68.27v-.72c-.36-.13-.62-.59-1.11-.43-.08.03-.16-.12-.2-.21.28-.02.57-.03.81-.22.09-.07.26-.05.27-.19,0-.18-.17-.16-.29-.21-.14-.05-.34-.13-.18-.29.18-.19.46-.19.7-.3v-.04h-4.54v.88c.1-.22.16-.51.11-.67.31-.09.5-.03.43.35-.03.16.04.21.18.24.19.04.37.09.55.13.48.09.53.05.55-.43.35-.02.7.24,1.1-.04-.07.35-.36.69.14.82Z"/>
    <path class="st1" d="M298.11,18.31c-.34-.22-.68-.43-1.08-.53-.08-.02-.18-.08-.24.01-.06.1.03.16.09.22.18.17.38.33.34.63,0,.06.06.16.14.15.26-.02.51.03.75.1v-.58Z"/>
    <path class="st1" d="M297.77,16.98c.13,0,.24.05.34.12v-.68h-.5c-.07.11-.1.25-.12.39-.02.22.14.18.28.17Z"/>
    <path class="st1" d="M298.11,20.77c-.46-.05-.89-.36-1.1-.8.09-.16.25-.15.4-.17.03-.15.03-.29-.12-.4-.38-.29-.8-.15-1.2-.12-.26-.25-.6-.25-.92-.27-.18-.01-.4-.09-.51.14-.12.24.08.37.23.51-.35.22-.49-.2-.77-.21.07-.13.15-.21.17-.3.04-.16.31-.24.21-.39-.11-.15-.33-.03-.5.02-.14.04-.28.06-.42.05v2.13h4.54v-.18Z"/>
    <path class="st1" d="M293.85,17.11c.29-.38.62-.3.97-.17.15.04.27.1.28.28-.3.12-.46.34-.33.66.13.31.48.43.79.24.22-.13.29-.09.31.14.05.47.45.45.76.52.21.05.29-.13.2-.32-.21-.42-.41-.85-.92-1,0-.16-.06-.29-.22-.35-.22-.09-.33-.17-.17-.45.05-.08.06-.16.05-.23h-2.01v.83c.12,0,.22-.06.28-.14Z"/>
    <path class="st1" d="M297.34,17.46c.23.07.45.13.63.29.04.04.09.08.13.11v-.58c-.21.19-.42,0-.63-.1-.1-.05-.23-.16-.31-.01-.09.17.07.25.18.29Z"/>
    <path class="st1" d="M294.43,7.34h-.23c.06.03.12.05.19.06.01-.02.03-.04.04-.06Z"/>
    <path class="st1" d="M296.1,7.38s-.02-.03-.03-.04h-1.39s.01.04.03.06c.03,0,.07.03.09.06.02,0,.04.02.06.03.01.02.01.04,0,.06.16.19.36.29.57.35.23-.07.44-.21.49-.37,0,0-.07-.03-.11-.05.08-.11.17-.11.28-.09Z"/>
    <path class="st1" d="M296.46,8.5c.27-.02.32-.28.46-.47-.02-.17-.16-.23-.3-.27-.1-.03-.25-.06-.35-.09-.14.04-.24.12-.2.33.08,0,.14.03.14.14,0,.19-.02.38.25.36Z"/>
    <path class="st1" d="M297.18,9.78c.16-.06.45.04.46-.14.01-.23-.26-.28-.47-.3-.29-.04-.59-.03-.71-.4-.02-.06-.07-.1-.13-.12,0,.02,0,.04,0,.06-.1,0-.2,0-.31,0-.18.07-.32.19-.38.37-.09.26.23.25.33.4-.02.04-.05.09-.07.13-.36.08-.65.04-.99-.18-.27-.17-.69-.35-1.08-.15-.09.03-.17.06-.26.09v.51s.06.03.09.05c.07.05.26,0,.18-.19-.04-.1-.09-.19-.03-.29.3.04.32.38.54.49.69.37,1.44.41,2.2.47.01,0,.03-.04.04-.07-.09-.2-.36-.21-.44-.41.36-.05.78.09,1.05-.3Z"/>
    <path class="st1" d="M293.66,11.87c.05-.03.1-.02.16.01h1.87c.23-.05.49-.08.28-.46.35.06.62.25.88.46h1.26v-.87c-.16.04-.29,0-.22-.3.08.06.16.09.22.1v-.75c-.15-.09-.3-.18-.47,0-.03.03.01.14.02.21-.32.04-.82-.19-.72.5.02.14-.17.34-.39.24-.41-.18-.57,0-.66.37-.77-.31-1.56-.55-2.33-.86v1.37h.07s.01,0,.02-.01Z"/>
    <path class="st1" d="M297.93,9.08c.05,0,.12.01.17,0v-.38c-.05-.04-.11-.07-.14-.12.04,0,.08,0,.14.02v-.85c-.14-.05-.28-.08-.43-.11-.17.25-.31.54-.06.87-.05.18-.42.15-.32.39.11.27.41.15.63.18Z"/>
    <path class="st1" d="M289.03,20.96v-4.54h-.59s-.08.02-.12.02c-.09,0-.18,0-.26-.02h-3.57v4.54h4.54Z"/>
    <path class="st1" d="M289.03,9.74v-2.39h-4.3c.02.17.14.25.35.17.56-.19,1.12-.06,1.68-.04.31.01.47.17.37.5-.26-.23-.54-.26-.87-.15-.1.04-.21-.31-.34-.08-.08.15.15.21.27.3.09.07.18.15.28.22.01.02.02.03.03.05-.1.1-.2.19-.32.31.58.11,1.16.44,1.61-.21.02-.03.08-.02.12-.03.1.32.42.31.66.42-.05.07-.07.17-.14.22-.25.2-.11.42.02.57.14.16.34.26.58.13Z"/>
    <path class="st1" d="M285.7,10.37c.33.59.88.41,1.37.47.16.02.25-.07.32-.2.25-.08.53,0,.76-.19.1-.08.19-.15.17-.28-.02-.22-.17-.09-.27-.09-.12,0-.22-.04-.24-.15-.04-.23-.23-.33-.38-.46.06-.02.11-.03.17-.05.12-.04.32.19.35-.07.02-.16-.18-.26-.31-.27-.48-.02-.96-.09-1.45.07.11.08.19.15.27.21-.21.07-.46.08-.54.36-.04-.04-.1-.08-.11-.13-.06-.37-.2-.44-.55-.24-.28.15-.58.11-.71-.28-.01-.03-.03-.06-.05-.09v.55c.08,0,.15.02.18.11.04.15-.07.16-.18.18v.22c.2.04.4.07.6.12.21.05.53.07.61.21Z"/>
    <path class="st1" d="M288.71,11.88h.32v-.22c-.14-.02-.25.05-.32.22Z"/>
    <path class="st1" d="M285.23,8.38c0,.13.07.2.19.2.14,0,.33.01.37-.16.02-.11-.13-.15-.22-.17-.14-.03-.27-.02-.33.14Z"/>
    <rect class="st1" x="266.34" y="25.5" width="4.54" height="4.54"/>
    <rect class="st1" x="275.41" y="25.5" width="4.54" height="4.54"/>
    <rect class="st1" x="270.88" y="30.03" width="4.54" height="4.54"/>
    <rect class="st1" x="270.88" y="20.96" width="4.54" height="4.54"/>
    <rect class="st1" x="257.26" y="25.5" width="4.54" height="4.54"/>
    <rect class="st1" x="261.8" y="30.03" width="4.54" height="4.54"/>
    <rect class="st1" x="261.8" y="20.96" width="4.54" height="4.54"/>
    <rect class="st1" x="252.72" y="30.03" width="4.54" height="4.54"/>
    <rect class="st1" x="252.72" y="20.96" width="4.54" height="4.54"/>
    <path class="st1" d="M275.41,3.18c-.2,0-.41.03-.63.11.19.15.38.22.41.34.04.16.12.24.22.29v-.74Z"/>
    <path class="st1" d="M271.96,3.06c-.08-.11-.18-.19-.29-.26h-.8v.09c.26.12.5.29.74.43.23.13.38.42.65.44.13.02.2.05.27.05.2.02.41.03.43-.25.02-.27-.2-.25-.37-.25-.24,0-.48-.04-.64-.25Z"/>
    <path class="st1" d="M270.98,5.12c.02-.12-.01-.22-.1-.29v.44c.05-.02.09-.07.1-.15Z"/>
    <path class="st1" d="M273.42,2.95c0,.21.19.1.3.1.1,0,.2,0,.28,0,.17.11.34.1.35-.08.02-.2-.19-.11-.31-.13-.1-.02-.2-.03-.3-.03-.13,0-.32,0-.32.14Z"/>
    <path class="st1" d="M271.14,6.22c.08.09.16.14.25.02.13-.17.26-.34.4-.51.11-.09.38,0,.33-.25-.05-.22-.24-.27-.45-.27-.25,0-.38.18-.52.35-.1.02-.19.05-.27.1v.39s.01,0,.02,0c.12-.01.17.09.24.16Z"/>
    <path class="st1" d="M271.69,7c-.05.23.2.26.36.32.02,0,.04.02.06.02h1.07c0-.09-.04-.17-.14-.24-.2-.14-.4-.31-.65-.31-.08-.02-.14-.03-.2-.04-.22-.03-.45,0-.5.24Z"/>
    <path class="st1" d="M272.36,6.29s.07-.02.11-.03c-.02-.03-.03-.07-.06-.12-.04.02-.08.04-.11.06.02.03.03.08.06.09Z"/>
    <path class="st1" d="M271.99,6.24s.1-.06.12-.1c.03-.05,0-.13-.06-.14-.09-.02-.12.05-.15.12,0,.06,0,.13.08.12Z"/>
    <path class="st1" d="M272.62,5.49c-.15.03-.18.13-.21.25-.03.12.01.21.12.25.11.05.22.08.25.09.28.05.47.09.66.05.12-.03.2-.08.13-.22-.06-.13-.8-.45-.95-.43Z"/>
    <path class="st1" d="M271.11,6.95c.1-.1.4-.14.16-.37-.09-.08-.24-.09-.39-.05v.81h.18c.09-.1.12-.23.05-.39Z"/>
    <path class="st1" d="M266.34,3.44v-.34c-.54-.19-1.1-.19-1.69-.23.42.45,1.06.65,1.69.57Z"/>
    <path class="st1" d="M263.6,6.13c-.23-.22-.53-.27-.82-.23-.22.03-.35.22-.34.46,0,.2-.06.37-.19.48-.38.33-.06.38.17.47.04.02.08.03.12.03h.8c.11-.23-.09-.42-.29-.57-.11-.08-.23-.17-.16-.33.07-.15.22-.13.35-.12.09,0,.18.02.27.01.14-.01.19-.12.09-.21Z"/>
    <path class="st1" d="M265.2,6.27c.31.09.48.36.79.34.14,0,.29.02.32.17.04.2-.14.23-.28.26-.13.03-.2.11-.25.23-.02.04-.04.06-.07.08h.63v-1.1c-.28-.15-.69-.15-1.14.03Z"/>
    <path class="st1" d="M262.5,3.21c.07.01.14.04.22.04.13,0,.31.04.33-.12.03-.19-.16-.17-.28-.19-.14-.02-.29-.03-.44-.03-.09,0-.19.01-.19.13,0,.09.08.11.15.13.07.02.14.03.22.04Z"/>
    <path class="st1" d="M262.08,4.43c0,.08.04.16.12.16.34,0,.68.23,1.05-.04-.3-.26-.6-.38-.96-.31-.11.02-.2.06-.21.19Z"/>
    <path class="st1" d="M264.9,7c.42-.29-.08-.39-.13-.57-.04-.15-.22-.35-.35-.19-.13.17-.59.15-.38.55-.07.02-.14.05-.21.07-.31.06-.26.27-.26.48h2s-.02,0-.04-.02c-.21-.11-.41-.22-.62-.32Z"/>
    <path class="st1" d="M265.58,5.54c.06-.27-.19-.41-.42-.46-.22-.05-.55-.14-.6.16-.05.35.36.3.54.41.22.08.45.08.49-.11Z"/>
    <path class="st1" d="M265.75,4.65c.16.23.37.3.59.34v-.73c-.45-.16-.94-.22-1.31-.54-.2.01-.47-.07-.44.18.03.25.08.6.51.55.24-.03.49-.01.65.21Z"/>
    <path class="st1" d="M253.29,2.83s0-.02,0-.03h-.56v.36c.15-.05.3-.1.45-.16.07-.03.12-.09.11-.17Z"/>
    <path class="st1" d="M256.59,7.26c-.13,0-.3-.02-.39.09h.75c-.11-.06-.23-.09-.36-.09Z"/>
    <path class="st1" d="M255.11,7.33c.03-.19.15-.16.29-.14.3.05.57-.02.81-.19.25.09.5.12.77.1.1,0,.22.02.27.12v-1.7c-.14-.08-.26-.19-.37-.33.06,0,.12,0,.18,0,.06,0,.13-.02.19-.03v-.56c-.06-.03-.12-.05-.18-.06-.07-.01-.15-.01-.22-.03-.23-.06-.46-.08-.66-.23-.34-.24-.61-.19-.76.23-.38.24-.4-.13-.54-.32.01-.08.2-.17.02-.24-.35-.15-.65-.4-1.03-.48-.2-.04-.41-.09-.52.17-.44.09-.58.12-.66-.05v3.77h2.4s0,0-.01,0Z"/>
    <path class="st1" d="M256.5,3.46c.19-.05.48.23.6-.08.09-.24-.14-.42-.4-.48-.31-.07-.59.08-.66.31-.06.22.28.16.46.25Z"/>
    <path class="st1" d="M257.26,3.64c-.14.02-.29.07-.46.16.17.02.32.07.46.12v-.28Z"/>
    <path class="st1" d="M275.41,16.42v-4.02s-.07-.08-.08-.15c.04-.1.05-.23.03-.37h-2.52c.08.08.15.17.12.32-.39-.01-.79-.02-1.18-.04-.12,0-.25-.07-.24-.21,0-.03,0-.05.02-.07h-.68v4.54h4.54Z"/>
    <rect class="st1" x="275.41" y="16.42" width="4.54" height="4.54"/>
    <path class="st1" d="M276.07,10.79c.08.15.29.2.48.15.16-.04.35-.07.43.12.09.2-.23.14-.23.38.61.05,1.21.09,1.82.13.08,0,.13-.06.12-.15-.04-.24-.7-.55-.92-.42-.21.14-.34.05-.42-.14-.05-.12-.1-.17-.21-.24-.24-.16-.34-.57-.76-.36-.02,0-.09-.07-.12-.12-.09-.17-.22-.22-.4-.21-.11,0-.27.02-.3-.12-.03-.14.12-.24.22-.31.15-.11.34-.08.52-.08.38,0,.77.02,1.15,0,.14,0,.37.03.4-.12.04-.21-.2-.16-.32-.21-.08-.04-.16-.09-.24-.12-.58-.25-1.28-.09-1.6.37-.1.14-.19.24-.28.29v.8c.26.02.5.08.66.36Z"/>
    <path class="st1" d="M279.68,11.07c-.1,0-.16.06-.17.16,0,.06.03.12.09.12.1.01.18-.02.19-.13.01-.08-.04-.14-.12-.16Z"/>
    <path class="st1" d="M277.55,8.17c.09.04.22-.03.25.17.05.32.4.49.69.33.16-.09.29-.12.46-.06.12.04.24.04.31-.08.04-.06.08-.14.02-.21-.09-.12-.21-.07-.32-.03-.35.1-.59.03-.58-.4.27.02.55.15.82,0,.28-.16.35-.38.19-.54h-.8c-.22.09-.52-.1-.68.19-.06,0-.13.01-.17,0-.41-.21-.54.19-.61.38-.09.25.25.2.41.27Z"/>
    <path class="st1" d="M279.95,7.34h-.14s.03.09.02.16c0,.17.04.24.12.27v-.43Z"/>
    <rect class="st1" x="261.8" y="11.88" width="4.54" height="4.54"/>
    <rect class="st1" x="266.34" y="16.42" width="4.54" height="4.54"/>
    <path class="st1" d="M270.88,7.5v-.16h-.39s.02.01.03.02c.11.08.21.22.36.13Z"/>
    <path class="st1" d="M266.54,7.34h-.2v.22c.07-.07.14-.15.2-.22Z"/>
    <path class="st1" d="M270.88,11.11s-.08-.1-.11-.16c.04-.03.08-.05.11-.08v-1.65c-.62-.2-1.25-.36-1.78-.78-.02-.25.23-.37.29-.59.11-.05.24-.11.33-.04.37.33.35-.01.41-.23.02-.08.05-.16.08-.25h-.6s-.05,0-.07,0h-2.45c0,.05.02.13.08.21.05.07.1.14.15.21-.33-.05-.66-.08-.98-.19v4.3h4.54v-.77Z"/>
    <path class="st1" d="M270.82,8.64s.04,0,.06-.01v-.5c-.13-.07-.27-.1-.41.02-.12.1-.1.26-.06.37.07.21.29.16.42.13Z"/>
    <rect class="st1" x="252.72" y="11.88" width="4.54" height="4.54"/>
    <rect class="st1" x="257.26" y="16.42" width="4.54" height="4.54"/>
    <path class="st1" d="M258.49,7.72c.2-.13.53.09.63-.2.02-.07.02-.13,0-.18h-1.82s-.02.04-.03.05v.84s.06.02.09.03c.42.19.94-.07,1.13-.54Z"/>
    <path class="st1" d="M261.8,9.93c-.2.01-.4.02-.51.25-.05-.01-.11-.02-.16-.03-.02-.09-.04-.17-.06-.26.14-.4.44-.37.74-.37v-.37s-.07,0-.1,0c-.55.04-.72-.04-1.02-.42-.04-.06-.12-.09-.18-.13.13-.01.26-.02.39-.04.19-.03.23-.15.08-.27-.42-.36-.89-.63-1.45-.69-.2-.02-.35.15-.45.31-.07.11.08.16.17.2-.02.16-.13.13-.23.11-.18-.03-.33,0-.47.17.5.13.91.29.92.89,0,.11.14.21.22.32-.27.17-.48-.16-.75-.07-.1.03-.29.11-.34-.07-.04-.15.12-.17.22-.24.18-.11.09-.26.03-.39-.02-.07-.12-.17-.15-.1-.14.29-.23.04-.31-.02-.14-.1-.28-.12-.41-.03-.22.13-.46.18-.69.2v3h4.54v-1.95Z"/>
    <rect class="st1" x="248.18" y="25.5" width="4.54" height="4.54"/>
    <rect class="st1" x="243.65" y="30.03" width="4.54" height="4.54"/>
    <rect class="st1" x="243.65" y="2.8" width="4.54" height="4.54"/>
    <rect class="st1" x="243.65" y="20.96" width="4.54" height="4.54"/>
    <rect class="st1" x="243.65" y="11.88" width="4.54" height="4.54"/>
    <rect class="st1" x="248.18" y="16.42" width="4.54" height="4.54"/>
    <rect class="st1" x="248.18" y="7.34" width="4.54" height="4.54"/>
    <rect class="st1" x="230.03" y="25.5" width="4.54" height="4.54"/>
    <rect class="st1" x="239.11" y="25.5" width="4.54" height="4.54"/>
    <rect class="st1" x="234.57" y="30.03" width="4.54" height="4.54"/>
    <rect class="st1" x="234.57" y="20.96" width="4.54" height="4.54"/>
    <rect class="st1" x="220.95" y="25.5" width="4.54" height="4.54"/>
    <rect class="st1" x="225.49" y="30.03" width="4.54" height="4.54"/>
    <rect class="st1" x="225.49" y="20.96" width="4.54" height="4.54"/>
    <rect class="st1" x="216.41" y="30.03" width="4.54" height="4.54"/>
    <rect class="st1" x="216.41" y="20.96" width="4.54" height="4.54"/>
    <rect class="st1" x="234.57" y="2.8" width="4.54" height="4.54"/>
    <rect class="st1" x="225.49" y="2.8" width="4.54" height="4.54"/>
    <rect class="st1" x="216.41" y="2.8" width="4.54" height="4.54"/>
    <rect class="st1" x="234.57" y="11.88" width="4.54" height="4.54"/>
    <rect class="st1" x="239.11" y="16.42" width="4.54" height="4.54"/>
    <rect class="st1" x="239.11" y="7.34" width="4.54" height="4.54"/>
    <rect class="st1" x="225.49" y="11.88" width="4.54" height="4.54"/>
    <rect class="st1" x="230.03" y="16.42" width="4.54" height="4.54"/>
    <rect class="st1" x="230.03" y="7.34" width="4.54" height="4.54"/>
    <rect class="st1" x="216.41" y="11.88" width="4.54" height="4.54"/>
    <rect class="st1" x="220.95" y="16.42" width="4.54" height="4.54"/>
    <rect class="st1" x="220.95" y="7.34" width="4.54" height="4.54"/>
  </g>
  <g>
    <path class="st0" d="M9.87,1.51h12.82l.09.05c-2.03,9.02-3.08,13.6-3.16,13.76l-2.99,2.86c.83,1.66,1.31,2.57,1.45,2.74-2.07,8.83-3.21,13.54-3.39,14.13h-4.28c-.08,0-.12-.04-.12-.12,0-.12.95-4.52,2.85-13.17h-3.86c-1.44,6.2-2.47,10.63-3.11,13.29l-.12.05H1.5v-.05c.19-.88,1.1-4.59,2.74-11.13H.12L0,23.86c.11-.86.19-1.29.26-1.29h4.31l1.45-5.81h-1.94c-.06,0-.09-.03-.09-.09.05-.86.13-1.29.26-1.29h2.04c.09,0,.63-2.12,1.61-6.35.03,0,.16-.47.37-1.41h-2.83c-.08,0-.12-.03-.12-.09.05-.86.13-1.29.26-1.29h3.06l.33-1.5h-4.61c-.08,0-.12-.04-.12-.12.08-.86.17-1.29.28-1.29h4.82c.25-1.22.43-1.83.54-1.83ZM11.42,9.61c-.75,3.45-1.12,5.23-1.12,5.32h3.86l.54.05c.94-2.97,1.47-4.76,1.61-5.37h-4.89Z"/>
    <path class="st0" d="M30.75,1.51h9.73c.08.02.12.05.12.12-.03.25-2.79,11.39-8.28,33.42l-.12.05h-4.47l-.09-.05c.64-3.14,1.07-5.35,1.29-6.63h-3.44l-1.73,6.63-.09.05h-4.47c-.08,0-.12-.04-.12-.12,1.79-6.98,2.69-10.55,2.69-10.71h-1.5l-.12-.07c.08-.89.17-1.34.28-1.34h1.71l1.83-7.29h-2.2c-.08,0-.12-.03-.12-.09.06-.83.14-1.24.23-1.24h2.46c.94-4,1.47-6.07,1.61-6.21.05-.02.19-.21.44-.59h-2.27l-.09-.05c.06-.86.15-1.29.26-1.29h3.14c.05-.12.66-.99,1.83-2.6h-5.05l-.12-.05c.08-.86.16-1.29.26-1.29h5.92c0-.12.16-.34.49-.66ZM30,9.64c-2.01,8.03-3.02,12.09-3.02,12.19h.05c.75.03,1.36.05,1.85.05h.91c.25,0,.64.02,1.17.07,1.98-8.05,2.97-12.15,2.97-12.3h-3.93Z"/>
    <path class="st0" d="M57.02,1.6l.12.05c-1.36,5.44-2.07,8.2-2.13,8.3h-3.67s-.07-.02-.07-.07c-.03,0-.05.02-.05.07-1.08-.05-1.88-.07-2.41-.07h-1.59l-3.72,14.37c.34,1.53.52,2.39.52,2.58,2.21-.05,3.99-.07,5.33-.07h1.24c.06.02.09.05.09.12-1.14,4.98-1.78,7.73-1.92,8.23l-9.43-.12c-.28-.97-.78-3.23-1.5-6.77,0-.12.71-2.98,2.13-8.55h-1.43l-.12-.05c.09-.89.18-1.34.26-1.34h1.66c0-.09.21-.97.63-2.62h-1.68l-.12-.05c.09-.89.18-1.34.26-1.34h1.92l1.66-6.73h-1.33c-.06,0-.09-.04-.09-.12.05-.81.12-1.22.21-1.22h1.59l.63-2.55h-2.29c-.06,0-.09-.04-.09-.12.05-.81.13-1.22.26-1.22h2.41c.06,0,.15-.23.26-.7h12.47Z"/>
    <path class="st0" d="M64.37,1.41h7.51l.12.05-1.99,8.39c-.83-.03-1.44-.05-1.85-.05h-.54l-.66-.05-4.09,16.9h.05c.27,0,1.15.02,2.67.05l.05.09-1.8,8.3c-.76-.03-1.33-.05-1.71-.05h-1.12s-.05-.02-.05-.07c-.05,0-.07.02-.07.07-.83-.05-3.3-.1-7.42-.16l-.05-.12c1.11-4.7,1.75-7.38,1.92-8.02l.12-.05c1.09.03,1.96.05,2.6.05h.07c.06,0,.2-.5.42-1.5h-4.42c-.08,0-.12-.03-.12-.09.06-.83.15-1.24.26-1.24h4.61l1.75-7.22h-5.12v-.05c.05-.89.12-1.34.21-1.34h5.24c.84-3.52,1.26-5.34,1.26-5.46h-.05c-.62-.03-1.14-.05-1.54-.05h-.75c-.27,0-.41-.05-.42-.16l.26-1.05h-1.75c-.08,0-.12-.04-.12-.12.06-.81.16-1.22.28-1.22h1.97l.58-2.53h-2.67c-.06,0-.09-.03-.09-.09.06-.86.15-1.29.26-1.29h2.83c.06,0,.24-.6.54-1.8.03,0,.05-.02.05-.07,1.29-.03,2.22-.05,2.78-.05Z"/>
    <path class="st0" d="M84,1.41c.08.02.12.05.12.12.45,11.28.68,17.19.68,17.72.05.06.07.12.07.16h.05c.53-2.3,2-8.28,4.42-17.95h4.35l.09.07-8.28,33.4-.12.05h-4.21c-.08,0-.12-.03-.12-.09l-.89-17.62h-.07c-2.5,10.73-3.9,16.68-4.21,17.84h-.91s-.05-.02-.05-.05c-.05,0-.07.02-.07.05-.3-.03-.52-.05-.68-.05-.59,0-1.56-.02-2.9-.07l-.05-.09,3.32-13.38h-2.46c-.08,0-.12-.04-.12-.12.05-.81.12-1.22.21-1.22h2.74c0-.16.25-1.18.75-3.07h-3.74l-.12-.05c.08-.86.17-1.29.28-1.29h3.88c.86-3.44,1.3-5.2,1.33-5.3h-4.26l-.12-.05c.08-.89.17-1.34.28-1.34h4.38c.06-.02.33-.98.8-2.91h-2.5l-.12-.05c.09-.86.19-1.29.28-1.29h2.67c.53-2.2.83-3.34.91-3.42h4.38Z"/>
    <path class="st0" d="M98.44,1.6h12.38c.45,0,.77.04.96.12-1.34,5.39-2.04,8.13-2.08,8.23h-8.54l-3.77,14.41v.05l.54,2.51h3.49c.09,0,.38-1.19.87-3.56.06-.16.19-.67.37-1.55h-.07c-.16,0-.56-.02-1.22-.05,0-.05-.02-.07-.05-.07l1.85-7.27h.12c.8,0,2.64-.02,5.52-.07,0,.05.02.07.05.07-3.07,12.78-4.73,19.62-4.98,20.51h-1.75c-.41,0-1.02.02-1.85.05v-.05l-.12.05c-3.17.05-5.09.07-5.78.07-.62.03-1,.05-1.12.05-.11-.27-.6-2.5-1.47-6.7l1.05-4.36h-2.64c-.08,0-.12-.03-.12-.09.08-.8.15-1.23.21-1.29l.26.05h2.55c.09,0,.61-2.02,1.54-6.05.03-.03.14-.41.33-1.12h-3.35l-.12-.05c.09-.89.19-1.34.28-1.34h3.44c.08,0,.65-2.23,1.71-6.68h-2.92c-.08,0-.12-.04-.12-.12.06-.81.16-1.22.28-1.22h3.11c0-.08.19-.91.58-2.51h-3.81c-.06,0-.09-.03-.09-.09.06-.86.15-1.29.26-1.29h4.02c.06-.42.13-.63.21-.63Z"/>
    <path class="st0" d="M132.88,1.51h12.96l.09.05c-2.14,8.58-3.33,13.3-3.58,14.18-1.12.98-2.08,1.88-2.85,2.67v.05c.97,1.75,1.47,2.68,1.52,2.79-1.79,7.28-2.94,11.9-3.44,13.85h-13.22l-.12-.05,3.86-15.02h-1.03c-.06,0-.09-.04-.09-.12.05-.81.13-1.22.26-1.22h1.19c.06-.2.31-1.21.75-3.02h-2.27l-.09-.05c.09-.89.18-1.34.26-1.34h2.48c.67-2.64,1.11-4.41,1.33-5.32h-2.83l-.12-.05c.09-.86.18-1.29.26-1.29h3.07l.7-2.91h-1.12v-.05c.03-.89.1-1.34.21-1.34h1.29c.28-1.22.46-1.83.54-1.83ZM132.39,21.57l-1.61,6.54h3.81c.14-.19.42-1.22.84-3.09.05-.06.35-1.19.91-3.4h-.47c-.76,0-1.93-.02-3.49-.05ZM135.5,9.92c-.11.52-.56,2.2-1.36,5.06l.23-.07c.33,0,1.63-.03,3.91-.09.31-1.56.63-3.21.96-4.95h-2.15c-.34,0-.87.02-1.59.05Z"/>
    <path class="st0" d="M153,1.41c2,.08,3.49.12,4.47.12.05.06.07.11.07.14l-5.71,22.57.47,2.25h6.46c.08,0,.12.03.12.09-1.19,5.47-1.83,8.3-1.92,8.51h-.07c-5.24-.08-8.24-.12-9.01-.12l-1.5-6.89c.11-.5.47-1.92,1.08-4.27h-5.12l-.12-.07c.09-.89.18-1.34.26-1.34h5.24c.08,0,.45-1.46,1.12-4.38.03,0,.16-.46.37-1.38h-2.95c-.06,0-.09-.03-.09-.09.05-.83.12-1.24.21-1.24h3.14c.61-2.41.91-3.63.91-3.68h-5.5c-.06,0-.09-.04-.09-.12.06-.81.15-1.22.26-1.22h5.71l1.33-5.62h-5.59c-.08,0-.12-.03-.12-.09.08-.83.17-1.24.28-1.24h5.8c0-.17.16-.81.49-1.92Z"/>
    <path class="st0" d="M165.89,1.51h13.59l.12.05c-5.55,22.16-8.38,33.34-8.47,33.54-5.32-.08-8.84-.12-10.55-.12-.06-.06-.56-2.3-1.5-6.7l2.36-9.33h-2.2c-.06,0-.09-.04-.09-.12.06-.86.15-1.29.26-1.29h2.29c.09,0,.37-1,.82-3h-3.49v-.05c.03-.89.1-1.34.21-1.34h3.65l1.29-5.27h-3.98l-.09-.05c.09-.89.18-1.34.26-1.34h4.19l.7-2.91h-2.15c-.08,0-.12-.03-.12-.09.05-.83.12-1.24.23-1.24h2.41c.05-.5.13-.75.26-.75ZM168.05,9.78c-2.32,9.88-3.49,14.87-3.49,15l.63,2.2h3.49c.39-1.73,1.79-7.44,4.19-17.11l-.28-.05h-.96c-.83,0-2.02-.02-3.58-.05Z"/>
    <path class="st0" d="M184.26,1.6h12.38c.45,0,.77.04.96.12-1.34,5.39-2.04,8.13-2.08,8.23h-8.54l-3.77,14.41v.05l.54,2.51h3.49c.09,0,.38-1.19.87-3.56.06-.16.19-.67.37-1.55h-.07c-.16,0-.56-.02-1.22-.05,0-.05-.02-.07-.05-.07l1.85-7.27h.12c.8,0,2.64-.02,5.52-.07,0,.05.02.07.05.07-3.07,12.78-4.73,19.62-4.98,20.51h-1.75c-.41,0-1.02.02-1.85.05v-.05l-.12.05c-3.17.05-5.09.07-5.78.07-.62.03-1,.05-1.12.05-.11-.27-.6-2.5-1.47-6.7l1.05-4.36h-2.64c-.08,0-.12-.03-.12-.09.08-.8.15-1.23.21-1.29l.26.05h2.55c.09,0,.61-2.02,1.54-6.05.03-.03.14-.41.33-1.12h-3.35l-.12-.05c.09-.89.19-1.34.28-1.34h3.44c.08,0,.65-2.23,1.71-6.68h-2.92c-.08,0-.12-.04-.12-.12.06-.81.16-1.22.28-1.22h3.11c0-.08.19-.91.58-2.51h-3.81c-.06,0-.09-.03-.09-.09.06-.86.15-1.29.26-1.29h4.02c.06-.42.13-.63.21-.63Z"/>
  </g>
</svg>