<?xml version="1.0" encoding="UTF-8"?>
<svg id="Layer_1" xmlns="http://www.w3.org/2000/svg" version="1.1" viewBox="0 0 60 60">
  <!-- Generator: Adobe Illustrator 30.0.0, SVG Export Plug-In . SVG Version: 2.1.1 Build 123)  -->
  <defs>
    <style>
      .st0 {
        fill: #26012c;
      }
    </style>
  </defs>
  <path class="st0" d="M52,4.9H8c-2.7,0-4.9,2-4.9,4.5v41.2c0,2.5,2.2,4.5,4.9,4.5h44c2.7,0,4.9-2,4.9-4.5V9.4c0-2.5-2.2-4.5-4.9-4.5ZM19.8,48.3c0,.7-.6,1.3-1.4,1.3h-6c-.8,0-1.4-.6-1.4-1.3v-23.6c0-.7.6-1.3,1.4-1.3h6c.8,0,1.4.6,1.4,1.3v23.6ZM15.4,21.1c-3.2,0-5.7-2.4-5.7-5.4s2.6-5.4,5.7-5.4,5.7,2.4,5.7,5.4-2.6,5.4-5.7,5.4ZM51.3,48.4c0,.7-.6,1.2-1.3,1.2h-6.5c-.7,0-1.3-.5-1.3-1.2v-11.1c0-1.7.5-7.2-4.6-7.2s-4.8,3.8-4.9,5.5v12.8c0,.7-.6,1.2-1.3,1.2h-6.2c-.7,0-1.3-.5-1.3-1.2v-23.8c0-.7.6-1.2,1.3-1.2h6.2c.7,0,1.3.5,1.3,1.2v2.1c1.5-2.1,3.7-3.7,8.3-3.7,10.3,0,10.3,9,10.3,14v11.4h0Z"/>
</svg>