<?xml version="1.0" encoding="UTF-8"?>
<svg id="Layer_1" xmlns="http://www.w3.org/2000/svg" version="1.1" viewBox="0 0 60 60">
  <!-- Generator: Adobe Illustrator 30.0.0, SVG Export Plug-In . SVG Version: 2.1.1 Build 123)  -->
  <defs>
    <style>
      .st0 {
        fill: #26012c;
      }
    </style>
  </defs>
  <path class="st0" d="M2.4,41.3c0,9,7.3,16.3,16.3,16.3h22.6c9,0,16.3-7.3,16.3-16.3v-22.6c0-9-7.3-16.3-16.3-16.3h-22.6C9.7,2.4,2.4,9.7,2.4,18.7v22.6ZM44.9,12.3c2,0,3.5,1.6,3.5,3.5s-1.6,3.5-3.5,3.5-3.5-1.6-3.5-3.5,1.6-3.5,3.5-3.5ZM30,16.6c7.4,0,13.4,6,13.4,13.4s-6,13.4-13.4,13.4-13.4-6-13.4-13.4,6-13.4,13.4-13.4Z"/>
</svg>