<?xml version="1.0" encoding="UTF-8"?>
<svg id="Layer_1" xmlns="http://www.w3.org/2000/svg" version="1.1" viewBox="0 0 60 60">
  <!-- Generator: Adobe Illustrator 30.0.0, SVG Export Plug-In . SVG Version: 2.1.1 Build 123)  -->
  <defs>
    <style>
      .st0 {
        fill: #26012c;
        fill-rule: evenodd;
      }
    </style>
  </defs>
  <path class="st0" d="M29.8,2.2C14.1,2.2,1.5,15,1.5,30.7s8.1,23.3,19.4,27.1c1.4.3,1.9-.6,1.9-1.4v-5.3c-7.9,1.7-9.5-3.4-9.5-3.4-1.3-3.3-3.1-4.2-3.1-4.2-2.6-1.7.2-1.7.2-1.7,2.9.2,4.4,2.9,4.4,2.9,2.5,4.3,6.6,3.1,8.3,2.4.2-1.8,1-3.1,1.8-3.8-6.3-.7-12.9-3.1-12.9-14.1s1.1-5.7,2.9-7.7c-.3-.7-1.3-3.6.3-7.6,0,0,2.4-.8,7.8,2.9,2.3-.6,4.7-.9,7.1-.9s4.8.3,7.1.9c5.4-3.7,7.8-2.9,7.8-2.9,1.5,3.9.6,6.9.3,7.6,1.8,2,2.9,4.5,2.9,7.7,0,11-6.6,13.4-12.9,14.1,1,.9,1.9,2.6,1.9,5.3v7.8c0,.9.5,1.7,1.9,1.4,11.3-3.8,19.4-14.5,19.4-27.1S45.8,2.2,30.2,2.2h-.4Z"/>
</svg>