<?xml version="1.0" encoding="UTF-8"?>
<svg xmlns="http://www.w3.org/2000/svg" version="1.1" viewBox="0 0 334.41 37.38">
  <!-- Generator: Adobe Illustrator 30.0.0, SVG Export Plug-In . SVG Version: 2.1.1 Build 123)  -->
  <defs>
    <style>
      .st0 {
        fill: #bf0413;
      }

      .st1 {
        fill: #26011c;
      }
    </style>
  </defs>
  <g id="OBJECTS">
    <g>
      <path class="st0" d="M9.87,1.51h12.82l.09.05c-2.03,9.02-3.08,13.6-3.16,13.76l-2.99,2.86c.83,1.66,1.31,2.57,1.45,2.74-2.07,8.83-3.21,13.54-3.39,14.13h-4.28c-.08,0-.12-.04-.12-.12,0-.12.95-4.52,2.85-13.17h-3.86c-1.44,6.2-2.47,10.63-3.11,13.29l-.12.05H1.5v-.05c.19-.88,1.1-4.59,2.74-11.13H.12L0,23.87c.11-.86.19-1.29.26-1.29h4.31l1.45-5.81h-1.94c-.06,0-.09-.03-.09-.09.05-.86.13-1.29.26-1.29h2.04c.09,0,.63-2.12,1.61-6.35.03,0,.16-.47.37-1.41h-2.83c-.08,0-.12-.03-.12-.09.05-.86.13-1.29.26-1.29h3.06l.33-1.5h-4.61c-.08,0-.12-.04-.12-.12.08-.86.17-1.29.28-1.29h4.82c.25-1.22.43-1.83.54-1.83ZM11.42,9.62c-.75,3.45-1.12,5.23-1.12,5.32h3.86l.54.05c.94-2.97,1.47-4.76,1.61-5.37h-4.89Z"/>
      <path class="st0" d="M30.75,1.51h9.73c.08.02.12.05.12.12-.03.25-2.79,11.39-8.28,33.42l-.12.05h-4.47l-.09-.05c.64-3.14,1.07-5.35,1.29-6.63h-3.44l-1.73,6.63-.09.05h-4.47c-.08,0-.12-.04-.12-.12,1.79-6.98,2.69-10.55,2.69-10.71h-1.5l-.12-.07c.08-.89.17-1.34.28-1.34h1.71l1.83-7.29h-2.2c-.08,0-.12-.03-.12-.09.06-.83.14-1.24.23-1.24h2.46c.94-4,1.47-6.07,1.61-6.21.05-.02.19-.21.44-.59h-2.27l-.09-.05c.06-.86.15-1.29.26-1.29h3.14c.05-.12.66-.99,1.83-2.6h-5.05l-.12-.05c.08-.86.16-1.29.26-1.29h5.92c0-.12.16-.34.49-.66ZM30,9.64c-2.01,8.03-3.02,12.09-3.02,12.19h.05c.75.03,1.36.05,1.85.05h.91c.25,0,.64.02,1.17.07,1.98-8.05,2.97-12.15,2.97-12.3h-3.93Z"/>
      <path class="st0" d="M57.02,1.6l.12.05c-1.36,5.44-2.07,8.2-2.13,8.3h-3.67s-.07-.02-.07-.07c-.03,0-.05.02-.05.07-1.08-.05-1.88-.07-2.41-.07h-1.59l-3.72,14.37c.34,1.53.52,2.39.52,2.58,2.21-.05,3.99-.07,5.33-.07h1.24c.06.02.09.05.09.12-1.14,4.98-1.78,7.73-1.92,8.23l-9.43-.12c-.28-.97-.78-3.23-1.5-6.77,0-.12.71-2.98,2.13-8.55h-1.43l-.12-.05c.09-.89.18-1.34.26-1.34h1.66c0-.09.21-.97.63-2.62h-1.68l-.12-.05c.09-.89.18-1.34.26-1.34h1.92l1.66-6.73h-1.33c-.06,0-.09-.04-.09-.12.05-.81.12-1.22.21-1.22h1.59l.63-2.55h-2.29c-.06,0-.09-.04-.09-.12.05-.81.13-1.22.26-1.22h2.41c.06,0,.15-.23.26-.7h12.47Z"/>
      <path class="st0" d="M64.37,1.41h7.51l.12.05-1.99,8.39c-.83-.03-1.44-.05-1.85-.05h-.54l-.66-.05-4.09,16.9h.05c.27,0,1.15.02,2.67.05l.05.09-1.8,8.3c-.76-.03-1.33-.05-1.71-.05h-1.12s-.05-.02-.05-.07c-.05,0-.07.02-.07.07-.83-.05-3.3-.1-7.42-.16l-.05-.12c1.11-4.7,1.75-7.38,1.92-8.02l.12-.05c1.09.03,1.96.05,2.6.05h.07c.06,0,.2-.5.42-1.5h-4.42c-.08,0-.12-.03-.12-.09.06-.83.15-1.24.26-1.24h4.61l1.75-7.22h-5.12v-.05c.05-.89.12-1.34.21-1.34h5.24c.84-3.52,1.26-5.34,1.26-5.46h-.05c-.62-.03-1.14-.05-1.54-.05h-.75c-.27,0-.41-.05-.42-.16l.26-1.05h-1.75c-.08,0-.12-.04-.12-.12.06-.81.16-1.22.28-1.22h1.97l.58-2.53h-2.67c-.06,0-.09-.03-.09-.09.06-.86.15-1.29.26-1.29h2.83c.06,0,.24-.6.54-1.8.03,0,.05-.02.05-.07,1.29-.03,2.22-.05,2.78-.05Z"/>
      <path class="st0" d="M84,1.41c.08.02.12.05.12.12.45,11.28.68,17.19.68,17.72.05.06.07.12.07.16h.05c.53-2.3,2-8.28,4.42-17.95h4.35l.09.07-8.28,33.4-.12.05h-4.21c-.08,0-.12-.03-.12-.09l-.89-17.62h-.07c-2.5,10.73-3.9,16.68-4.21,17.84h-.91s-.05-.02-.05-.05c-.05,0-.07.02-.07.05-.3-.03-.52-.05-.68-.05-.59,0-1.56-.02-2.9-.07l-.05-.09,3.32-13.38h-2.46c-.08,0-.12-.04-.12-.12.05-.81.12-1.22.21-1.22h2.74c0-.16.25-1.18.75-3.07h-3.74l-.12-.05c.08-.86.17-1.29.28-1.29h3.88c.86-3.44,1.3-5.2,1.33-5.3h-4.26l-.12-.05c.08-.89.17-1.34.28-1.34h4.38c.06-.02.33-.98.8-2.91h-2.5l-.12-.05c.09-.86.19-1.29.28-1.29h2.67c.53-2.2.83-3.34.91-3.42h4.38Z"/>
      <path class="st0" d="M98.44,1.6h12.38c.45,0,.77.04.96.12-1.34,5.39-2.04,8.13-2.08,8.23h-8.54l-3.77,14.41v.05l.54,2.51h3.49c.09,0,.38-1.19.87-3.56.06-.16.19-.67.37-1.55h-.07c-.16,0-.56-.02-1.22-.05,0-.05-.02-.07-.05-.07l1.85-7.27h.12c.8,0,2.64-.02,5.52-.07,0,.05.02.07.05.07-3.07,12.78-4.73,19.62-4.98,20.51h-1.75c-.41,0-1.02.02-1.85.05v-.05l-.12.05c-3.17.05-5.09.07-5.78.07-.62.03-1,.05-1.12.05-.11-.27-.6-2.5-1.47-6.7l1.05-4.36h-2.64c-.08,0-.12-.03-.12-.09.08-.8.15-1.23.21-1.29l.26.05h2.55c.09,0,.61-2.02,1.54-6.05.03-.03.14-.41.33-1.12h-3.35l-.12-.05c.09-.89.19-1.34.28-1.34h3.44c.08,0,.65-2.23,1.71-6.68h-2.92c-.08,0-.12-.04-.12-.12.06-.81.16-1.22.28-1.22h3.11c0-.08.19-.91.58-2.51h-3.81c-.06,0-.09-.03-.09-.09.06-.86.15-1.29.26-1.29h4.02c.06-.42.13-.63.21-.63Z"/>
      <path class="st0" d="M132.88,1.51h12.96l.09.05c-2.14,8.58-3.33,13.3-3.58,14.18-1.12.98-2.08,1.88-2.85,2.67v.05c.97,1.75,1.47,2.68,1.52,2.79-1.79,7.28-2.94,11.9-3.44,13.85h-13.22l-.12-.05,3.86-15.02h-1.03c-.06,0-.09-.04-.09-.12.05-.81.13-1.22.26-1.22h1.19c.06-.2.31-1.21.75-3.02h-2.27l-.09-.05c.09-.89.18-1.34.26-1.34h2.48c.67-2.64,1.11-4.41,1.33-5.32h-2.83l-.12-.05c.09-.86.18-1.29.26-1.29h3.07l.7-2.91h-1.12v-.05c.03-.89.1-1.34.21-1.34h1.29c.28-1.22.46-1.83.54-1.83ZM132.39,21.57l-1.61,6.54h3.81c.14-.19.42-1.22.84-3.09.05-.06.35-1.19.91-3.4h-.47c-.76,0-1.93-.02-3.49-.05ZM135.5,9.92c-.11.52-.56,2.2-1.36,5.06l.23-.07c.33,0,1.63-.03,3.91-.09.31-1.56.63-3.21.96-4.95h-2.15c-.34,0-.87.02-1.59.05Z"/>
      <path class="st0" d="M153,1.41c2,.08,3.49.12,4.47.12.05.06.07.11.07.14l-5.71,22.57.47,2.25h6.46c.08,0,.12.03.12.09-1.19,5.47-1.83,8.3-1.92,8.51h-.07c-5.24-.08-8.24-.12-9.01-.12l-1.5-6.89c.11-.5.47-1.92,1.08-4.27h-5.12l-.12-.07c.09-.89.18-1.34.26-1.34h5.24c.08,0,.45-1.46,1.12-4.38.03,0,.16-.46.37-1.38h-2.95c-.06,0-.09-.03-.09-.09.05-.83.12-1.24.21-1.24h3.14c.61-2.41.91-3.63.91-3.68h-5.5c-.06,0-.09-.04-.09-.12.06-.81.15-1.22.26-1.22h5.71l1.33-5.62h-5.59c-.08,0-.12-.03-.12-.09.08-.83.17-1.24.28-1.24h5.8c0-.17.16-.81.49-1.92Z"/>
      <path class="st0" d="M165.89,1.51h13.59l.12.05c-5.55,22.16-8.38,33.34-8.47,33.54-5.32-.08-8.84-.12-10.55-.12-.06-.06-.56-2.3-1.5-6.7l2.36-9.33h-2.2c-.06,0-.09-.04-.09-.12.06-.86.15-1.29.26-1.29h2.29c.09,0,.37-1,.82-3h-3.49v-.05c.03-.89.1-1.34.21-1.34h3.65l1.29-5.27h-3.98l-.09-.05c.09-.89.18-1.34.26-1.34h4.19l.7-2.91h-2.15c-.08,0-.12-.03-.12-.09.05-.83.12-1.24.23-1.24h2.41c.05-.5.13-.75.26-.75ZM168.05,9.78c-2.32,9.88-3.49,14.87-3.49,15l.63,2.2h3.49c.39-1.73,1.79-7.44,4.19-17.11l-.28-.05h-.96c-.83,0-2.02-.02-3.58-.05Z"/>
      <path class="st0" d="M184.26,1.6h12.38c.45,0,.77.04.96.12-1.34,5.39-2.04,8.13-2.08,8.23h-8.54l-3.77,14.41v.05l.54,2.51h3.49c.09,0,.38-1.19.87-3.56.06-.16.19-.67.37-1.55h-.07c-.16,0-.56-.02-1.22-.05,0-.05-.02-.07-.05-.07l1.85-7.27h.12c.8,0,2.64-.02,5.52-.07,0,.05.02.07.05.07-3.07,12.78-4.73,19.62-4.98,20.51h-1.75c-.41,0-1.02.02-1.85.05v-.05l-.12.05c-3.17.05-5.09.07-5.78.07-.62.03-1,.05-1.12.05-.11-.27-.6-2.5-1.47-6.7l1.05-4.36h-2.64c-.08,0-.12-.03-.12-.09.08-.8.15-1.23.21-1.29l.26.05h2.55c.09,0,.61-2.02,1.54-6.05.03-.03.14-.41.33-1.12h-3.35l-.12-.05c.09-.89.19-1.34.28-1.34h3.44c.08,0,.65-2.23,1.71-6.68h-2.92c-.08,0-.12-.04-.12-.12.06-.81.16-1.22.28-1.22h3.11c0-.08.19-.91.58-2.51h-3.81c-.06,0-.09-.03-.09-.09.06-.86.15-1.29.26-1.29h4.02c.06-.42.13-.63.21-.63Z"/>
    </g>
  </g>
  <g id="DESIGNED_BY_FREEPIK">
    <path class="st1" d="M326.04,12.5s-.11-.06-.4-.2c-2.21-.87-4.76-.9-6.36-.8.08-2.41.12-5.11.13-8.21,0-.6-.22-1.16-.63-1.58-.41-.42-.95-.66-1.52-.66h-26.82c-1.19,0-2.15,1-2.15,2.23v.85c-1.72-.6-6.39-2.1-10.42-2.1-1.9,0-3.31.47-4.2,1.4-1.09,1.13-1.08,2.6-1.08,3.22v.06c0,.62.49.94.97,1.26.7.46,1.5.99,1.5,2.54,0,2.57-7.83,2.57-12.04,2.57-8.84,0-14.26.61-16.12,1.8-.37.24-.89.78-1.66,1.59-.72.75-1.61,1.68-2.76,2.77l-6.18,1.53c-.49-1.62-1.22-2.79-2.1-3.37,0,0-.2-.12-.45-.24-3.58-1.5-8.43-1.08-10.09-.65-2.54.65-4.47,4.39-4.71,9.11-.02.48-.03.96-.02,1.43h-5.1c-.77,0-1.74.63-1.88,1.54l-.67,4.51v.08c0,.89.69,1.61,1.55,1.61h9.13c.24.17.5.3.75.4,1.61.6,6.39,1.55,10.09.44,0,0,.24-.06.48-.19.3-.15.6-.37.88-.65h30.89c.65.96,1.42,1.61,2.23,1.89.96.33,2.98.72,5.24.72,1.68,0,3.49-.22,5.08-.83,0,0,.2-.09.49-.25.5-.32.96-.83,1.38-1.52h1.75c5,0,13.36-.91,20.74-1.71,5.31-.58,9.89-1.07,11.85-1.07.06,0,.12,0,.18,0,.43.4.88.68,1.34.83,1.75.6,6.58,1.36,10.31-.11,0,0,.19-.09.45-.22,1.91-1.19,3.26-5.23,3.26-9.98s-1.36-8.84-3.29-10.01ZM213.12,29.17c-.02.23-.04.5-.07.79-.03.29-.08.59-.12.9-.1.61-.22,1.21-.34,1.66-.11.45-.22.74-.22.74,0,0,0-.31.03-.78.03-.46.1-1.08.2-1.68.05-.3.1-.61.16-.89.06-.28.12-.55.17-.77.11-.45.21-.74.21-.74,0,0,0,.31-.03.78ZM310.96,2.15s-.03.04-.08.14c-.05.09-.11.23-.17.42-.06.18-.12.41-.17.68-.02.13-.04.28-.06.43-.02.15-.03.31-.05.48,0,.17-.02.34-.03.52,0,.18,0,.37,0,.56,0,.19,0,.39.01.59.01.2.02.41.03.61,0,.21.03.42.05.63.02.21.04.43.07.65.03.22.05.44.08.66.03.22.06.44.09.66.07.44.13.88.21,1.31.08.43.15.86.24,1.27.08.41.16.81.24,1.18.08.38.16.73.23,1.06.16.65.28,1.2.38,1.58.1.38.15.6.15.6,0,0-.08-.21-.21-.58-.13-.37-.31-.9-.5-1.55-.18-.65-.4-1.4-.58-2.23-.19-.82-.35-1.7-.49-2.6-.03-.22-.06-.44-.09-.67-.02-.22-.05-.45-.07-.67-.03-.22-.04-.44-.05-.66-.01-.22-.03-.43-.03-.64-.02-.42,0-.83,0-1.22.01-.19.03-.38.04-.57.02-.18.04-.36.06-.53.02-.17.05-.33.08-.48.04-.15.06-.29.1-.43.07-.27.15-.49.23-.67.15-.37.31-.53.31-.53ZM286.65,18c-1.5-2.6-8.47-2.4-8.47-2.4,11.17-2.66,17.32,2.87,19.97,6.34-.02-.02-.03-.04-.05-.06-.16-.17-.31-.36-.48-.52-.17-.16-.35-.33-.53-.5l-.27-.25-.28-.23c-.19-.15-.38-.31-.57-.46-.19-.16-.38-.3-.58-.43-.2-.14-.39-.28-.59-.41-.38-.28-.79-.51-1.17-.74-.19-.12-.38-.23-.57-.34-.19-.11-.38-.2-.56-.3-.36-.19-.71-.37-1.02-.54-.31-.17-.62-.29-.88-.42-.26-.12-.49-.23-.68-.31-.38-.17-.59-.27-.59-.27,0,0,.21.12.57.33.18.1.4.23.65.37.25.15.54.3.84.5.3.19.62.4.97.63.17.11.35.22.52.35.17.13.35.26.53.39.35.27.74.52,1.09.83.18.15.36.3.54.45.18.15.36.3.53.47.17.16.34.33.51.49l.25.25.23.26c.15.17.31.34.46.51.15.17.27.35.41.53.28.34.49.7.7,1.04.11.17.18.34.27.5.04.07.07.14.11.2-10.48-1.43-13.12,7.79-13.12,7.79,0,0,2.78-11.44,1.28-14.04ZM284.64,25.85c-.01-.26-.02-.52-.03-.79-.03-.53-.06-1.07-.12-1.6-.05-.53-.13-1.06-.23-1.58-.05-.26-.11-.51-.16-.76-.07-.25-.13-.49-.21-.73-.15-.47-.33-.91-.53-1.32-.21-.4-.43-.75-.68-1.06-.49-.61-1.04-.97-1.45-1.16-.42-.19-.68-.21-.68-.21,0,0,.07,0,.19,0,.12,0,.31.02.54.08.23.06.5.16.79.33.29.17.6.39.89.69.29.3.58.66.83,1.07.24.42.47.87.65,1.37.09.25.17.5.25.76.07.26.15.52.2.79.11.54.2,1.09.26,1.64.06.55.08,1.11.1,1.65.01.54,0,1.08-.02,1.6,0,.52-.07,1.01-.1,1.48-.05.47-.1.91-.16,1.32-.06.41-.12.78-.18,1.11-.05.33-.12.61-.17.85-.1.47-.16.73-.16.73,0,0,0-.27.03-.75.01-.24.03-.53.05-.86.01-.33.03-.71.05-1.11.01-.41.03-.85.04-1.32,0-.47.02-.96.01-1.46,0-.25,0-.51,0-.77ZM301,18.72c.29.16.57.32.84.48.28.16.55.31.81.47.26.16.51.33.75.49.49.32.95.62,1.35.93.41.31.78.59,1.11.84.32.27.58.51.81.71.44.4.69.63.69.63,0,0-.28-.19-.77-.52-.24-.17-.54-.37-.87-.6-.35-.21-.74-.46-1.17-.73-.42-.28-.9-.53-1.4-.82-.25-.14-.5-.29-.77-.44-.27-.14-.54-.28-.82-.43-.28-.14-.56-.3-.84-.44-.29-.14-.59-.28-.88-.42-.59-.3-1.2-.56-1.81-.83l-.46-.21-.46-.19c-.31-.13-.61-.25-.92-.38-.61-.24-1.21-.48-1.8-.69-.59-.2-1.15-.43-1.7-.6-.54-.19-1.06-.36-1.53-.51-.48-.16-.91-.29-1.3-.41-.39-.12-.73-.22-1.01-.3-.28-.08-.5-.15-.65-.19-.15-.04-.23-.06-.23-.06,0,0,.08,0,.24.03.16.02.38.05.67.09.29.04.64.1,1.04.18.4.08.85.16,1.34.29.24.06.5.12.76.18.26.07.53.15.81.22.56.15,1.14.33,1.74.52.3.1.6.21.91.31.31.11.62.21.93.33.31.12.62.25.93.37l.47.19.46.2c.62.28,1.23.55,1.83.86.3.15.59.3.88.45ZM298.46,9.88v-3.28h10.88c.11,4.01,1.5,8.19,2.1,9.83-4.15.05-6.03.57-6.83.92-2.04-3.72-5.33-6.74-6.15-7.46ZM296.23,11.78c-.23-.08-.5-.19-.82-.31-.31-.13-.68-.25-1.07-.38s-.81-.29-1.26-.45c-.45-.15-.93-.3-1.41-.47-.49-.16-1.01-.3-1.52-.47-.52-.16-1.05-.3-1.58-.45-.53-.15-1.06-.28-1.59-.41-.53-.11-1.04-.25-1.55-.34-.5-.1-.99-.2-1.46-.28-.46-.09-.91-.15-1.31-.21-.41-.05-.78-.11-1.12-.14-.33-.04-.63-.07-.87-.09-.24-.02-.43-.03-.56-.04-.13,0-.2,0-.2,0,0,0,.27-.05.76-.09.24-.02.54-.04.88-.04.34-.01.72,0,1.14,0,.42.02.87.04,1.35.1.48.04.98.11,1.49.19.26.04.52.09.78.13.26.05.53.1.8.15.53.13,1.08.25,1.62.39.53.16,1.07.3,1.6.48.52.17,1.03.35,1.52.53.49.19.96.38,1.4.56.44.19.85.39,1.23.57.38.18.73.34,1.02.51.3.16.56.31.77.42.43.24.67.38.67.38,0,0-.26-.09-.72-.25ZM292.11,31.3c.55-.08,1.15-.18,1.78-.27.63-.1,1.29-.22,1.97-.33.34-.06.69-.13,1.04-.19.35-.07.7-.14,1.06-.21.35-.08.71-.16,1.07-.24.36-.08.71-.19,1.07-.28.35-.09.7-.21,1.05-.32.34-.12.68-.25,1-.39.16-.08.31-.16.46-.24l.12-.06.05-.03.06-.04.23-.14c.31-.19.59-.39.88-.58.56-.41,1.09-.82,1.6-1.23.5-.41.98-.8,1.46-1.12.48-.32.95-.57,1.38-.73.44-.16.84-.24,1.16-.27.16-.01.31-.02.44-.03.13,0,.24,0,.32,0,.17,0,.27,0,.27,0,0,0-.09.01-.27.03-.09,0-.19.02-.32.04-.12.03-.26.05-.42.09-.31.07-.69.2-1.09.38-.4.2-.82.47-1.26.81-.44.34-.88.76-1.37,1.19-.48.43-1,.89-1.57,1.33-.29.21-.59.44-.89.63l-.23.15-.06.04s-.04.03-.07.04l-.13.07c-.17.09-.34.18-.51.27-.35.15-.7.29-1.06.43-.36.11-.72.24-1.08.34-.37.09-.73.19-1.09.27-.37.08-.73.15-1.09.23-.72.14-1.44.25-2.13.35-.69.1-1.36.18-2,.24-.64.07-1.24.11-1.8.16-1.11.08-2.04.11-2.7.13-.65.01-1.02,0-1.02,0,0,0,1.47-.21,3.68-.53ZM309.77,23.11c-.28-.14-.55-.29-.8-.42-.26-.13-.49-.27-.71-.39-.44-.25-.8-.47-1.05-.63s-.39-.26-.39-.26c0,0,.16.04.45.13.28.09.68.22,1.15.39.24.09.49.18.76.28.27.1.55.21.84.34.29.12.59.24.89.38.2.09.4.18.61.27,0,.26.02.52.04.77,0,0,0,0,0,0-.3-.14-.61-.29-.91-.43-.3-.14-.59-.29-.87-.43ZM310.77,20.13c-.3,0-.6-.02-.88-.03-.29,0-.56-.03-.82-.05-.26-.01-.51-.04-.74-.06-.46-.04-.84-.09-1.1-.13-.27-.04-.42-.07-.42-.07,0,0,.15-.03.42-.07.27-.04.65-.09,1.1-.13.23-.02.48-.04.74-.06.26-.02.54-.04.82-.05.29,0,.58-.03.88-.03.3,0,.6,0,.91-.01.01,0,.02,0,.04,0-.03.23-.06.46-.09.69-.29,0-.57,0-.85-.01ZM295.81,2.15h14.77s-.71,1.29-.71,3.06h-16.96s1.61-.4,2.9-3.06ZM293.19,5.62c.57-.01,1.37-.05,2.34-.06.97-.01,2.1-.05,3.31-.05,1.21,0,2.51-.02,3.8-.02,1.29,0,2.59.02,3.8.02,1.21,0,2.34.04,3.31.05.03,0,.07,0,.1,0,0,.06,0,.13,0,.19-.03,0-.06,0-.09,0-.97.01-2.1.05-3.31.05-1.21,0-2.51.02-3.8.02-1.29,0-2.59-.02-3.8-.02-1.21,0-2.34-.04-3.31-.05-.97-.02-1.78-.05-2.34-.06-.57-.02-.89-.03-.89-.03,0,0,.32-.01.89-.03ZM288.96,3.15c.05-.31.16-.65.38-.91.22-.27.53-.44.83-.5.15-.04.3-.04.44-.04.13,0,.26.01.38.02.47.02.78.06.78.06,0,0-.31.03-.78.06-.24.01-.51,0-.78.08-.13.04-.27.09-.39.17-.12.07-.24.17-.33.29-.09.11-.17.24-.23.38-.06.14-.09.28-.12.43,0,.07-.02.14-.03.21,0,.07,0,.14-.01.21,0,.14-.01.27-.02.39-.02.49-.06.81-.06.81,0,0-.04-.32-.06-.81,0-.12-.01-.25-.02-.39,0-.14,0-.29.02-.45ZM286.74,4.6c.21.06.47.14.77.23.3.09.63.2.99.34.36.13.75.29,1.15.45.4.17.83.35,1.27.56.43.21.88.42,1.32.67.22.12.45.24.67.37.22.13.44.26.66.4.45.26.87.55,1.29.83.43.27.82.59,1.21.87.4.28.75.6,1.09.88.17.14.34.28.5.42.15.14.3.28.45.41.28.27.55.5.77.73.22.23.41.43.56.6.31.33.48.52.48.52,0,0-.19-.17-.53-.48-.17-.15-.37-.34-.6-.55-.23-.21-.51-.43-.81-.68-.15-.12-.3-.25-.46-.39-.16-.13-.33-.26-.51-.39-.35-.26-.71-.56-1.11-.83-.39-.27-.79-.57-1.22-.84-.42-.27-.85-.56-1.29-.81-.22-.13-.44-.26-.65-.4-.22-.12-.44-.25-.66-.37-.44-.25-.88-.47-1.3-.69-.43-.22-.84-.42-1.24-.61-.4-.18-.77-.36-1.13-.5-.7-.3-1.29-.54-1.71-.69-.42-.15-.66-.23-.66-.23,0,0,.25.05.68.17ZM289.15,6.09s-6.68-2.39-9.78,1.08c0,0,.38-3.6-3.3-3.91,0,0,6.52-.43,13.08,2.83ZM274.84,7.67c-.1-.03-.2-.07-.28-.11-.18-.07-.34-.17-.47-.26-.13-.09-.23-.19-.31-.27-.16-.17-.21-.29-.21-.29,0,0,.08.11.25.24.09.07.2.14.33.21.14.07.29.13.47.18.09.03.18.05.28.07.1.02.2.04.3.05.1.02.21.03.32.03.11,0,.22.02.34.01.23,0,.47-.02.71-.03.12-.01.24-.03.36-.04.1,0,.24-.05.36-.07.06-.01.13-.02.18-.04l.16-.05.16-.05c.05-.02.1-.05.15-.08.21-.09.37-.25.5-.41.1-.18.17-.38.17-.59,0-.2-.03-.4-.09-.58-.05-.18-.12-.34-.19-.48-.07-.14-.14-.25-.21-.35-.07-.09-.12-.16-.16-.2-.04-.05-.06-.07-.06-.07,0,0,.03.02.07.05.05.03.12.09.2.17.08.08.17.19.26.32.09.13.19.29.27.48.05.09.07.2.1.3.02.11.05.23.05.35.02.25-.04.51-.17.76-.04.05-.08.11-.12.17-.02.03-.04.06-.06.08l-.08.07-.16.13c-.06.04-.12.07-.18.1-.06.03-.12.07-.18.09l-.19.07-.19.07c-.06.02-.12.03-.19.04-.13.02-.24.05-.38.06-.13.01-.25.02-.38.04-.25.01-.5.02-.74,0-.12,0-.24-.02-.36-.04-.12-.01-.23-.03-.34-.06-.11-.02-.21-.05-.31-.08ZM265.25,14.85c8.5-.27,9.53-.11,15.55-1.15,0,0-3.09,1.21-7.91,1.35-12.78.35-13.59,1.62-18.99,4.75,0,0,5.38-4.76,11.35-4.95ZM263.62,27.55h-.28c-.02-.26-.03-.53-.04-.81-.24.01-.51.03-.8.04-.65.03-1.4.05-2.21.05-.41,0-.82,0-1.25,0-.43,0-.86-.01-1.29-.02-.43-.01-.86-.03-1.29-.04-.43-.01-.84-.04-1.25-.06-.4-.02-.8-.05-1.17-.07-.37-.02-.72-.06-1.04-.08-1.29-.11-2.15-.25-2.15-.25,0,0,.87-.1,2.16-.15.32-.01.68-.03,1.05-.03.37,0,.76-.02,1.17-.02.41,0,.82,0,1.25,0,.43,0,.86.01,1.29.02.43.01.86.03,1.29.04.43.01.84.04,1.25.06.81.04,1.56.1,2.21.16.28.03.55.05.78.08,0-.45,0-.91.03-1.38.03-.52.09-1.04.17-1.56.06-.36.14-.71.22-1.07-.06,0-.12,0-.18-.01-.51-.04-1.11-.09-1.74-.17-.32-.04-.65-.07-.98-.12-.33-.05-.67-.1-1.01-.15-.34-.06-.67-.11-1-.17-.33-.06-.65-.13-.97-.18-.31-.06-.62-.13-.9-.19-.29-.06-.56-.13-.81-.19-.5-.12-.91-.24-1.2-.32-.29-.08-.45-.14-.45-.14,0,0,.17,0,.47,0,.3,0,.73.02,1.24.06.26.02.53.04.82.07.29.03.6.06.92.1.32.04.65.07.98.12.33.05.67.1,1.01.15.34.06.67.11,1,.17.33.06.65.13.97.18.63.12,1.21.25,1.71.38.07.02.14.03.21.05.14-.54.32-1.06.52-1.55.38-.91.86-1.7,1.35-2.3.49-.61,1.01-1,1.4-1.22.19-.11.36-.17.47-.21.11-.04.17-.06.17-.06,0,0-.06.03-.17.07-.11.05-.26.13-.44.26-.37.24-.83.68-1.28,1.29-.46.61-.87,1.4-1.22,2.3-.34.89-.61,1.89-.77,2.9-.17,1.01-.24,2.05-.24,3.01,0,.33,0,.65.02.96ZM247.71,15.87c1.42-1.25,8.53-1.26,12.54-1.16-.17.03-.34.06-.51.09-.3.07-.6.15-.91.23-.31.08-.62.15-.92.27-.61.22-1.24.41-1.83.69-.3.14-.6.27-.9.4-.3.13-.58.3-.86.45-.57.31-1.13.61-1.64.96-.51.34-1.02.66-1.47,1-.45.34-.87.68-1.25.98-.19.16-.38.29-.55.44-.17.15-.32.3-.47.43-.29.27-.55.51-.76.71-.42.4-.65.63-.65.63,0,0,.27-.19.73-.52.23-.17.51-.37.83-.61.16-.12.33-.24.51-.38.18-.13.38-.25.58-.39.41-.27.84-.56,1.3-.87.22-.16.48-.29.73-.44.25-.15.5-.3.76-.46.51-.33,1.07-.59,1.63-.89.05-.02.1-.05.15-.08-4.6,2.68-8.71,6.89-13.01,9.72-5.55,3.65-7.28,3.79-9.04,3.79-2.73,0-1.37-1.17,4.36-5.41,5.1-3.78,6.45-5.88,10.64-9.59ZM233.78,23.63c-.01-.1-.03-.19-.04-.29l.15-.04c.02.09.05.19.07.29.1.43.17.94.18,1.49,0,.27,0,.57-.02.85,0,.13-.02.26-.04.4,0,0,.01,0,.02,0-.14.09-.28.18-.42.26-.28.01-.59.02-.9.02-.28,0-.55-.01-.81-.03-.26-.01-.5-.04-.71-.06-.41-.04-.69-.11-.69-.11,0,0,.28-.06.69-.09.21-.02.45-.04.71-.05.26-.01.54-.01.81-.01.34,0,.68.02.99.04.02-.13.03-.26.04-.4.03-.29.04-.55.04-.82,0-.54-.03-1.04-.08-1.46ZM234.87,24.88c-.01-.46-.07-.9-.14-1.32-.03-.15-.06-.29-.1-.44l.42-.1c.05.14.09.28.13.43.1.43.2.9.23,1.39.02.21.03.41.03.63-.19.13-.39.26-.59.38.02-.33.02-.66.01-.97ZM236.78,23.12l1.61-.4c-.5.39-1.01.77-1.53,1.14-.02-.25-.05-.5-.08-.75ZM234.83,21.96c.62-.15,1.28-.3,1.94-.45,1.33-.29,2.66-.55,3.66-.72.5-.09.92-.15,1.21-.2.04,0,.08-.01.11-.02-.03.03-.06.05-.09.08,0,0,0,0,0,0-.29.08-.7.2-1.19.33-.99.26-2.31.58-3.63.87-.66.14-1.33.28-1.95.4-.62.12-1.21.23-1.71.32-.5.09-.92.15-1.22.2-.29.05-.46.07-.46.07,0,0,.16-.05.45-.13.29-.08.7-.2,1.19-.33.49-.13,1.07-.28,1.69-.42ZM234.19,21.37c.1.11.19.23.28.37l-.29.07c-.05-.1-.11-.2-.17-.29-.17-.24-.34-.43-.51-.55-.04-.03-.08-.06-.12-.09-.04-.02-.08-.04-.12-.06-.07-.04-.14-.07-.19-.08-.11-.03-.17-.05-.17-.05,0,0,.06,0,.18.01.06,0,.13.01.21.04.04.01.09.02.14.04.04.02.09.05.14.07.2.09.42.27.63.51ZM233.71,20.53s-.05,0-.14-.02c-.09-.02-.23-.03-.39-.05-.17,0-.37-.03-.59,0-.22.02-.47.07-.71.19-.24.12-.48.3-.68.55-.21.25-.39.54-.54.88-.3.66-.5,1.44-.62,2.22-.12.79-.2,1.59-.21,2.34,0,.32,0,.62.03.92h-.21c-.03-.29-.06-.6-.06-.91,0-.39,0-.78.02-1.18.02-.4.06-.81.12-1.21.12-.81.3-1.62.62-2.33.16-.35.36-.68.6-.95.24-.27.52-.48.81-.61.29-.13.58-.17.83-.17.25,0,.46.06.63.11.17.06.29.12.37.16.08.04.13.07.13.07ZM227.16,24.81c.04-.57.1-1.14.2-1.71.1-.57.23-1.14.41-1.69.18-.55.4-1.08.69-1.56.28-.48.62-.91,1-1.26.38-.35.8-.61,1.22-.78.41-.17.82-.26,1.17-.27.35-.02.66.03.9.08.25.06.43.13.55.18.12.05.18.09.18.09,0,0-.07.01-.2.03-.07,0-.15.01-.24.02-.09.01-.2.03-.31.04-.12.02-.24.03-.38.06-.14.03-.28.05-.43.09-.3.07-.64.16-.98.32-.68.33-1.33.97-1.82,1.82-.24.43-.46.9-.63,1.41-.17.5-.32,1.03-.43,1.57-.11.54-.2,1.09-.26,1.63-.03.27-.06.55-.07.8,0,.14-.02.27-.02.41,0,.13,0,.26,0,.39,0,.37.02.73.05,1.08h-.49c-.05-.34-.09-.7-.11-1.06,0-.14-.01-.28-.02-.42,0-.13,0-.27,0-.41,0-.29.02-.56.04-.85ZM219.94,25.36c.02-.42.04-.86.09-1.29.05-.44.12-.89.22-1.32.19-.88.48-1.74.85-2.49.37-.76.83-1.4,1.29-1.88.46-.48.94-.77,1.29-.93.17-.08.32-.12.42-.14.1-.02.15-.04.15-.04,0,0-.05.02-.15.05-.09.03-.23.1-.39.18-.33.18-.76.51-1.19,1-.43.48-.83,1.14-1.17,1.88-.34.74-.61,1.58-.79,2.44-.19.86-.29,1.73-.34,2.56-.04.79-.09,1.53-.08,2.17h-.18c-.04-.65-.05-1.39-.01-2.18ZM221.3,28.09h11.18c-.69.6-1.44,1.33-1.89,1.99-.29.43-.5,1.09-.42,1.74-2.67.02-12.79.08-12.62,0,2.84-1.34,3.75-3.73,3.75-3.73ZM232.01,33.75c-1.28-.01-2.53-.02-3.75-.03-1.22-.02-2.39-.03-3.51-.05-1.11-.02-2.17-.04-3.14-.06-1.95-.04-3.57-.1-4.7-.13-.57-.01-1.01-.04-1.32-.05-.3-.01-.47-.02-.47-.02,0,0,.16,0,.47-.02.3-.01.75-.03,1.32-.05,1.13-.03,2.76-.09,4.7-.13.97-.02,2.03-.04,3.14-.06,1.11-.01,2.29-.03,3.51-.05.83,0,1.68-.01,2.53-.02.29.28.68.51,1.22.66h0ZM233.62,31.31c-.39.02-.72.03-1,.02-.55-.02-.87-.08-.87-.08,0,0,.08,0,.23.02.15,0,.36,0,.64,0,.55-.01,1.34-.09,2.26-.3.46-.1.95-.25,1.46-.42.51-.19,1.04-.4,1.57-.66.13-.06.27-.13.4-.2.13-.07.27-.14.4-.22.27-.14.54-.3.81-.45.54-.32,1.08-.65,1.61-1,1.07-.68,2.12-1.41,3.09-2.12.97-.71,1.87-1.37,2.63-1.96,1.52-1.17,2.54-1.95,2.54-1.95,0,0-.24.21-.66.59-.43.37-1.02.9-1.77,1.52-.37.3-.78.63-1.2.98-.43.35-.89.71-1.37,1.07-.48.36-.98.73-1.5,1.09-.52.36-1.04.73-1.58,1.07-.54.34-1.09.67-1.64.99-.28.15-.55.31-.82.45-.14.07-.27.14-.41.21-.14.07-.28.13-.41.2-.54.27-1.09.46-1.61.63-.53.15-1.03.29-1.5.37-.47.09-.91.13-1.29.16ZM256.16,33.43c-.3.01-.75.03-1.32.05-1.13.03-2.76.09-4.7.13-1.95.04-4.21.08-6.65.11-1.22,0-2.47.03-3.75.03-1.15,0-2.32,0-3.49.01,1.52-.16,3.7-.41,4.83-.67.81,0,1.62.02,2.4.02,2.43.02,4.7.06,6.65.11,1.95.04,3.57.1,4.7.13.57.01,1.01.04,1.32.05.3.01.47.02.47.02,0,0-.16,0-.47.02ZM246.3,31.82s2.66-.95,3.76-3.73h8.38l-1,3.73h-11.14ZM258.8,29.17c-.01.23-.04.5-.07.79-.03.29-.08.59-.12.9-.1.61-.22,1.21-.34,1.66-.11.45-.22.74-.22.74,0,0,0-.31.03-.78.03-.46.1-1.08.2-1.68.05-.3.1-.61.16-.89.06-.28.12-.55.17-.77.11-.45.21-.74.21-.74,0,0,0,.31-.03.78ZM267.05,33.67s-.08-4.43-8.1-5.6h9.23l-1.13,5.6ZM273.05,33.5c-.08-.13-.2-.32-.34-.57-.27-.5-.66-1.23-.98-2.17-.16-.47-.33-.99-.46-1.55-.14-.56-.23-1.16-.3-1.79-.01-.16-.03-.32-.04-.48,0-.16-.02-.31-.02-.47-.01-.33-.01-.65,0-.99.01-.66.06-1.33.15-2,.09-.67.21-1.34.39-1.98.18-.64.41-1.27.7-1.85.29-.58.64-1.11,1.05-1.55.41-.44.86-.8,1.32-1.04.46-.25.92-.4,1.33-.45.1-.01.2-.02.3-.03.1,0,.19,0,.28,0,.18,0,.34.03.48.05.29.05.51.12.65.18.14.06.22.1.22.1,0,0-.08.02-.23.04-.15.02-.37.06-.63.11-.26.06-.58.12-.92.24-.34.12-.71.26-1.08.49-.37.23-.73.55-1.06.94-.33.39-.62.86-.88,1.37-.25.52-.48,1.08-.66,1.67-.18.59-.32,1.21-.42,1.84-.1.63-.17,1.27-.21,1.9-.02.31-.03.64-.04.94,0,.16,0,.32,0,.47,0,.15,0,.3,0,.45.02.6.08,1.18.16,1.73.08.55.19,1.06.3,1.53.12.47.25.89.37,1.27.12.38.24.7.35.96.21.53.35.83.35.83,0,0-.04-.07-.12-.2ZM274.82,31.85c-.05-.09-.13-.23-.22-.42-.17-.37-.4-.91-.58-1.59-.18-.68-.33-1.49-.39-2.37-.06-.88-.07-1.82,0-2.76.07-.94.21-1.88.49-2.73.15-.42.33-.82.55-1.17.23-.35.51-.64.82-.84.31-.2.64-.3.93-.32.29-.02.54.02.74.08.2.06.34.12.44.17.09.05.15.08.15.08,0,0-.06,0-.16-.02-.11-.02-.26-.03-.45-.04-.19,0-.42,0-.67.04-.25.04-.52.14-.78.32-.52.36-.92,1.05-1.19,1.85-.27.8-.43,1.71-.51,2.63-.08.92-.12,1.85-.08,2.71.01.43.05.85.1,1.24.04.39.11.76.18,1.1.07.34.15.65.23.92.08.27.16.5.23.69.07.19.14.33.18.43.05.1.07.15.07.15,0,0-.03-.05-.08-.14ZM278.17,25.31c-.02-.62-.09-1.2-.17-1.69-.08-.49-.18-.9-.27-1.18-.08-.28-.14-.44-.14-.44,0,0,.02.04.06.11.04.07.09.17.15.31.12.27.27.66.4,1.16.13.49.23,1.08.28,1.72.01.16.02.32.03.49,0,.08,0,.17,0,.25v.25c0,.33-.03.68-.06,1.02-.04.34-.09.68-.15,1.01-.07.33-.16.65-.25.95-.2.61-.47,1.15-.78,1.56-.08.1-.15.2-.24.28-.08.08-.16.16-.25.22-.08.06-.16.12-.24.15-.08.04-.15.08-.22.1-.07.02-.13.04-.19.05-.06,0-.1,0-.14,0-.08,0-.12,0-.12,0,0,0,.04,0,.11-.02.04,0,.08-.02.14-.03.05-.02.11-.05.17-.07.07-.02.13-.07.2-.12.07-.04.14-.1.21-.17.07-.06.14-.14.21-.23.07-.08.13-.18.2-.28.13-.2.25-.44.36-.7.11-.26.2-.54.29-.83.09-.3.15-.61.22-.93.06-.32.11-.65.14-.98.03-.33.06-.65.06-.99.01-.33.01-.64,0-.96ZM279.39,30.19c-.19.56-.45,1.1-.79,1.57-.33.47-.8.88-1.37,1.01-.59.12-1.12-.15-1.44-.47-.34-.32-.54-.69-.71-1.01-.16-.33-.26-.62-.33-.87-.07-.25-.12-.44-.14-.58-.03-.13-.04-.21-.04-.21,0,0,.03.07.08.19.05.13.13.31.24.54.1.23.25.5.43.78.19.28.42.59.73.83.15.12.33.22.51.26.09.02.15.04.28.04.09,0,.19-.03.28-.04.37-.12.71-.45.99-.86.28-.41.47-.91.65-1.43.17-.52.29-1.07.37-1.62.05-.28.08-.56.1-.84.02-.28.04-.55.05-.84v-.21s0-.05,0-.05v-.04s0-.1,0-.1c0-.14,0-.28,0-.41-.01-.27-.02-.54-.04-.81-.04-.53-.12-1.04-.21-1.51-.11-.47-.22-.92-.37-1.31-.16-.39-.31-.75-.5-1.02-.08-.15-.2-.26-.28-.38-.11-.09-.19-.21-.29-.26-.1-.07-.19-.13-.27-.16-.08-.04-.16-.08-.22-.08-.13-.03-.2-.04-.2-.04,0,0,.07,0,.2,0,.07,0,.15.02.24.04.05.01.1.02.15.04.05.02.11.05.16.08.12.05.23.15.36.23.06.05.12.11.18.17.06.06.12.12.18.19.24.27.46.62.66,1.02.2.4.37.86.51,1.35.13.49.25,1.02.31,1.58.07.55.11,1.13.1,1.72,0,.28-.02.58-.04.88-.03.3-.05.59-.1.89-.09.59-.23,1.18-.42,1.74ZM279.83,32.95c-.09.2-.17.35-.23.46-.06.1-.09.16-.09.16,0,0,.03-.06.07-.17.05-.11.12-.27.2-.47.17-.41.37-1.01.56-1.74.19-.73.34-1.61.44-2.55.05-.47.09-.96.1-1.46.02-.5.01-1,0-1.51-.02-.5-.04-1.01-.1-1.5-.05-.49-.12-.98-.2-1.44-.09-.46-.18-.91-.29-1.33-.11-.42-.23-.81-.36-1.16-.06-.18-.13-.35-.2-.5-.06-.16-.13-.31-.19-.45-.06-.14-.13-.27-.19-.38-.06-.12-.12-.23-.18-.32-.06-.09-.11-.18-.15-.25-.05-.07-.09-.13-.12-.18-.07-.1-.1-.15-.1-.15,0,0,.04.05.11.14.08.09.18.23.3.41.06.09.13.19.2.31.07.11.14.24.21.38.07.14.15.28.22.44.08.16.15.32.22.5.14.35.28.75.4,1.16.12.42.24.87.33,1.34.09.47.17.96.22,1.46.06.5.09,1.01.11,1.52,0,.51.01,1.02-.02,1.52-.02.5-.06,1-.12,1.47-.11.95-.31,1.83-.52,2.56-.21.73-.46,1.32-.64,1.72ZM312.76,30.53c-.24,0-.59.02-1.04.04-.45.03-.99.07-1.61.13-.62.06-1.32.14-2.08.22-.76.09-1.59.19-2.46.3-.87.11-1.79.23-2.74.35-.95.12-1.93.25-2.93.37-1,.12-2.02.24-3.03.37-1.02.11-2.04.23-3.04.34-.5.06-1,.1-1.49.15-.49.04-.98.08-1.46.12-.96.08-1.89.13-2.77.18-.88.05-1.71.07-2.48.09-.77.02-1.47.02-2.1,0-.62,0-1.17-.03-1.62-.05-.9-.05-1.41-.11-1.41-.11,0,0,.13,0,.37,0,.24,0,.59-.01,1.04-.03.45-.02.99-.04,1.61-.08.62-.03,1.32-.08,2.09-.14,1.53-.12,3.31-.28,5.21-.48.95-.1,1.94-.21,2.93-.33,1-.12,2.02-.24,3.03-.36,1.02-.11,2.03-.23,3.03-.34,1-.12,1.99-.21,2.94-.31,1.91-.19,3.7-.35,5.23-.44,1.53-.1,2.82-.12,3.72-.09.45.01.8.03,1.04.06.24.02.37.03.37.03,0,0-.13,0-.37,0ZM315.6,12.97c-.1.05-.25.14-.42.27-.17.13-.37.3-.58.53-.2.23-.41.5-.62.81-.42.63-.79,1.43-1.1,2.33-.31.9-.54,1.89-.68,2.89-.08.5-.13,1.01-.16,1.51-.03.5-.05.99-.05,1.47,0,.96.04,1.85.13,2.61s.18,1.39.28,1.83c.09.44.15.69.15.69,0,0-.02-.06-.06-.17-.04-.11-.09-.28-.15-.5-.12-.43-.28-1.06-.4-1.82-.12-.76-.22-1.67-.24-2.64-.03-.97.03-2.01.17-3.03.15-1.03.4-2.04.74-2.95.34-.91.77-1.71,1.22-2.33.45-.63.94-1.05,1.32-1.28.18-.12.35-.19.45-.23.11-.04.17-.06.17-.06,0,0-.06.03-.16.08ZM320.96,29.64c-.08-.13-.18-.32-.31-.57-.25-.5-.6-1.23-.9-2.15-.15-.46-.3-.97-.42-1.52-.13-.55-.22-1.13-.28-1.74-.03-.31-.06-.63-.07-.93-.02-.32-.02-.64-.01-.96,0-.64.04-1.3.11-1.95.07-.65.17-1.31.33-1.94.15-.63.34-1.25.59-1.83.25-.58.56-1.11.92-1.57.36-.46.77-.85,1.2-1.13.43-.28.87-.47,1.28-.54.41-.07.76-.06,1.04-.02.29.05.5.11.64.17.14.06.21.09.21.09,0,0-.08.02-.23.04-.15.02-.36.06-.61.11-.26.05-.56.14-.88.26-.32.12-.67.29-1.02.55-.69.51-1.28,1.38-1.73,2.42-.22.52-.42,1.09-.57,1.68-.15.59-.28,1.2-.36,1.82-.09.62-.15,1.25-.18,1.87-.02.31-.03.62-.03.92,0,.31,0,.61,0,.9.02.59.08,1.16.15,1.7.07.54.17,1.04.28,1.51.11.46.23.88.34,1.26.11.37.22.69.32.95.19.52.32.82.32.82,0,0-.04-.07-.11-.2ZM322.59,28c-.05-.09-.12-.23-.2-.42-.16-.37-.37-.9-.53-1.57-.16-.67-.3-1.47-.36-2.33-.03-.43-.05-.87-.05-1.33,0-.45,0-.91.04-1.37.06-.92.18-1.84.41-2.69.12-.42.28-.82.47-1.18.2-.35.44-.67.72-.89.28-.23.6-.36.89-.39.29-.03.54,0,.73.05.19.05.34.12.43.17.09.05.14.08.14.08,0,0-.06,0-.16-.02-.1-.02-.25-.03-.44-.05-.19-.01-.41,0-.65.06-.24.06-.5.17-.73.37-.23.2-.44.48-.61.81-.18.33-.31.7-.43,1.1-.23.8-.37,1.7-.44,2.6-.03.45-.06.9-.07,1.35-.01.44-.01.89,0,1.31.03.85.12,1.64.25,2.31.13.67.29,1.22.42,1.59.07.19.12.33.17.43.04.1.06.15.06.15,0,0-.03-.05-.07-.14ZM325.65,21.42c-.02-.61-.08-1.19-.15-1.67-.08-.49-.16-.89-.24-1.17-.08-.28-.13-.44-.13-.44,0,0,.02.04.05.11.03.07.08.17.14.31.11.27.25.66.37,1.15.12.49.21,1.07.26,1.7.02.31.04.64.03.97,0,.32-.02.66-.05,1-.02.17-.04.33-.06.5-.03.17-.05.33-.08.49-.03.16-.07.32-.1.48-.04.16-.08.31-.12.46-.05.15-.1.3-.14.44-.06.14-.11.28-.17.41-.06.13-.12.26-.19.38-.07.12-.13.23-.21.34-.14.21-.29.38-.45.52-.15.13-.31.22-.44.28-.07.02-.13.04-.18.05-.05.01-.1,0-.14.01-.07,0-.11,0-.11,0,0,0,.04,0,.11-.02.04,0,.08-.01.13-.03.05-.02.1-.05.17-.08.12-.07.25-.17.38-.31.13-.14.25-.32.37-.53.06-.1.11-.22.17-.33.05-.12.1-.24.16-.37.04-.13.09-.27.14-.41.04-.14.08-.29.12-.43.03-.15.07-.3.1-.45.03-.15.06-.31.09-.47.02-.16.05-.32.07-.48l.05-.49c.03-.32.05-.65.06-.98.01-.32,0-.64,0-.95ZM327.21,21.11c.06.54.1,1.1.09,1.68,0,.14,0,.28,0,.42l-.02.44c-.02.29-.05.58-.08.87-.08.58-.2,1.15-.37,1.71-.16.56-.39,1.09-.69,1.57-.29.47-.71.92-1.26,1.08-.07.03-.14.03-.21.04-.08,0-.13.02-.22.01-.06,0-.11,0-.18-.02-.07-.02-.15-.03-.21-.06-.25-.1-.44-.25-.6-.42-.32-.33-.5-.69-.65-1.02-.14-.32-.23-.62-.3-.86-.07-.24-.1-.44-.13-.57-.02-.13-.04-.2-.04-.2,0,0,.02.07.07.19.04.13.12.3.22.53.09.23.23.49.4.78.17.28.39.6.68.84.14.12.31.23.48.27.04.01.08.01.12.02.04,0,.11,0,.16.01l.12-.02s.09-.01.13-.04c.35-.13.66-.49.9-.91.25-.43.42-.93.57-1.44.14-.52.26-1.06.32-1.61.04-.27.07-.55.09-.82l.03-.41c0-.14,0-.28.01-.42v-.21s0-.2,0-.2c0-.14,0-.27,0-.4-.01-.27-.01-.53-.04-.79-.04-.52-.1-1.02-.18-1.49-.1-.46-.19-.91-.32-1.3-.13-.39-.28-.74-.45-1.02-.16-.29-.35-.51-.53-.66-.18-.15-.34-.23-.47-.26-.13-.03-.19-.04-.19-.04,0,0,.07,0,.2,0,.12,0,.33.06.54.19.21.13.45.34.66.62.22.28.42.63.59,1.03.18.4.33.85.45,1.33.12.48.23,1,.28,1.54Z"/>
  </g>
</svg>